<mxfile host="65bd71144e">
    <diagram id="7w93Qd3ucldGkNyjXXQn" name="Sayfa -1">
        <mxGraphModel dx="1231" dy="794" grid="1" gridSize="10" guides="1" tooltips="1" connect="1" arrows="1" fold="1" page="1" pageScale="1" pageWidth="1654" pageHeight="2336" math="0" shadow="0">
            <root>
                <mxCell id="0"/>
                <mxCell id="1" parent="0"/>
                <mxCell id="Sv2H_rABcHJF4czR625y-1" value="Person" style="swimlane;fontStyle=1;align=center;verticalAlign=top;childLayout=stackLayout;horizontal=1;startSize=26;horizontalStack=0;resizeParent=1;resizeParentMax=0;resizeLast=0;collapsible=1;marginBottom=0;" parent="1" vertex="1">
                    <mxGeometry x="700" y="20" width="160" height="268" as="geometry">
                        <mxRectangle x="340" y="50" width="80" height="30" as="alternateBounds"/>
                    </mxGeometry>
                </mxCell>
                <mxCell id="Sv2H_rABcHJF4czR625y-2" value="# firstName: String" style="text;strokeColor=none;fillColor=none;align=left;verticalAlign=top;spacingLeft=4;spacingRight=4;overflow=hidden;rotatable=0;points=[[0,0.5],[1,0.5]];portConstraint=eastwest;" parent="Sv2H_rABcHJF4czR625y-1" vertex="1">
                    <mxGeometry y="26" width="160" height="26" as="geometry"/>
                </mxCell>
                <mxCell id="Sv2H_rABcHJF4czR625y-4" value="# lastName: String" style="text;strokeColor=none;fillColor=none;align=left;verticalAlign=top;spacingLeft=4;spacingRight=4;overflow=hidden;rotatable=0;points=[[0,0.5],[1,0.5]];portConstraint=eastwest;" parent="Sv2H_rABcHJF4czR625y-1" vertex="1">
                    <mxGeometry y="52" width="160" height="26" as="geometry"/>
                </mxCell>
                <mxCell id="Sv2H_rABcHJF4czR625y-5" value="# id: UniqueID" style="text;strokeColor=none;fillColor=none;align=left;verticalAlign=top;spacingLeft=4;spacingRight=4;overflow=hidden;rotatable=0;points=[[0,0.5],[1,0.5]];portConstraint=eastwest;" parent="Sv2H_rABcHJF4czR625y-1" vertex="1">
                    <mxGeometry y="78" width="160" height="26" as="geometry"/>
                </mxCell>
                <mxCell id="Sv2H_rABcHJF4czR625y-3" value="" style="line;strokeWidth=1;fillColor=none;align=left;verticalAlign=middle;spacingTop=-1;spacingLeft=3;spacingRight=3;rotatable=0;labelPosition=right;points=[];portConstraint=eastwest;strokeColor=inherit;" parent="Sv2H_rABcHJF4czR625y-1" vertex="1">
                    <mxGeometry y="104" width="160" height="8" as="geometry"/>
                </mxCell>
                <mxCell id="BRYjogfGwO4EZ4AMCY0b-3" value="+ Person(String, String)" style="text;strokeColor=none;fillColor=none;align=left;verticalAlign=top;spacingLeft=4;spacingRight=4;overflow=hidden;rotatable=0;points=[[0,0.5],[1,0.5]];portConstraint=eastwest;" parent="Sv2H_rABcHJF4czR625y-1" vertex="1">
                    <mxGeometry y="112" width="160" height="26" as="geometry"/>
                </mxCell>
                <mxCell id="Sv2H_rABcHJF4czR625y-6" value="+ getFirstName(): String" style="text;strokeColor=none;fillColor=none;align=left;verticalAlign=top;spacingLeft=4;spacingRight=4;overflow=hidden;rotatable=0;points=[[0,0.5],[1,0.5]];portConstraint=eastwest;" parent="Sv2H_rABcHJF4czR625y-1" vertex="1">
                    <mxGeometry y="138" width="160" height="26" as="geometry"/>
                </mxCell>
                <mxCell id="GpqEzXDei8LeBioLYVpC-25" value="+ getLastName(): String" style="text;strokeColor=none;fillColor=none;align=left;verticalAlign=top;spacingLeft=4;spacingRight=4;overflow=hidden;rotatable=0;points=[[0,0.5],[1,0.5]];portConstraint=eastwest;" parent="Sv2H_rABcHJF4czR625y-1" vertex="1">
                    <mxGeometry y="164" width="160" height="26" as="geometry"/>
                </mxCell>
                <mxCell id="GpqEzXDei8LeBioLYVpC-26" value="+ getID(): String" style="text;strokeColor=none;fillColor=none;align=left;verticalAlign=top;spacingLeft=4;spacingRight=4;overflow=hidden;rotatable=0;points=[[0,0.5],[1,0.5]];portConstraint=eastwest;" parent="Sv2H_rABcHJF4czR625y-1" vertex="1">
                    <mxGeometry y="190" width="160" height="26" as="geometry"/>
                </mxCell>
                <mxCell id="GpqEzXDei8LeBioLYVpC-27" value="+ setFirstName(String): void" style="text;strokeColor=none;fillColor=none;align=left;verticalAlign=top;spacingLeft=4;spacingRight=4;overflow=hidden;rotatable=0;points=[[0,0.5],[1,0.5]];portConstraint=eastwest;" parent="Sv2H_rABcHJF4czR625y-1" vertex="1">
                    <mxGeometry y="216" width="160" height="26" as="geometry"/>
                </mxCell>
                <mxCell id="GpqEzXDei8LeBioLYVpC-28" value="+ setLastName(String): void" style="text;strokeColor=none;fillColor=none;align=left;verticalAlign=top;spacingLeft=4;spacingRight=4;overflow=hidden;rotatable=0;points=[[0,0.5],[1,0.5]];portConstraint=eastwest;" parent="Sv2H_rABcHJF4czR625y-1" vertex="1">
                    <mxGeometry y="242" width="160" height="26" as="geometry"/>
                </mxCell>
                <mxCell id="Sv2H_rABcHJF4czR625y-7" value="Student" style="swimlane;fontStyle=1;align=center;verticalAlign=top;childLayout=stackLayout;horizontal=1;startSize=26;horizontalStack=0;resizeParent=1;resizeParentMax=0;resizeLast=0;collapsible=1;marginBottom=0;" parent="1" vertex="1">
                    <mxGeometry x="360" y="410" width="370" height="604" as="geometry"/>
                </mxCell>
                <mxCell id="Sv2H_rABcHJF4czR625y-8" value="- advisor: Advisor" style="text;strokeColor=none;fillColor=none;align=left;verticalAlign=top;spacingLeft=4;spacingRight=4;overflow=hidden;rotatable=0;points=[[0,0.5],[1,0.5]];portConstraint=eastwest;" parent="Sv2H_rABcHJF4czR625y-7" vertex="1">
                    <mxGeometry y="26" width="370" height="26" as="geometry"/>
                </mxCell>
                <mxCell id="Sv2H_rABcHJF4czR625y-10" value="- id: StudentID" style="text;strokeColor=none;fillColor=none;align=left;verticalAlign=top;spacingLeft=4;spacingRight=4;overflow=hidden;rotatable=0;points=[[0,0.5],[1,0.5]];portConstraint=eastwest;" parent="Sv2H_rABcHJF4czR625y-7" vertex="1">
                    <mxGeometry y="52" width="370" height="26" as="geometry"/>
                </mxCell>
                <mxCell id="Sv2H_rABcHJF4czR625y-11" value="- listOfLectureSessions: ArrayList&lt;LectureSession&gt;" style="text;strokeColor=none;fillColor=none;align=left;verticalAlign=top;spacingLeft=4;spacingRight=4;overflow=hidden;rotatable=0;points=[[0,0.5],[1,0.5]];portConstraint=eastwest;" parent="Sv2H_rABcHJF4czR625y-7" vertex="1">
                    <mxGeometry y="78" width="370" height="26" as="geometry"/>
                </mxCell>
                <mxCell id="Sv2H_rABcHJF4czR625y-12" value="- transcript: Transcript" style="text;strokeColor=none;fillColor=none;align=left;verticalAlign=top;spacingLeft=4;spacingRight=4;overflow=hidden;rotatable=0;points=[[0,0.5],[1,0.5]];portConstraint=eastwest;" parent="Sv2H_rABcHJF4czR625y-7" vertex="1">
                    <mxGeometry y="104" width="370" height="26" as="geometry"/>
                </mxCell>
                <mxCell id="GpqEzXDei8LeBioLYVpC-29" value="- dateOfEntry: Calender" style="text;strokeColor=none;fillColor=none;align=left;verticalAlign=top;spacingLeft=4;spacingRight=4;overflow=hidden;rotatable=0;points=[[0,0.5],[1,0.5]];portConstraint=eastwest;" parent="Sv2H_rABcHJF4czR625y-7" vertex="1">
                    <mxGeometry y="130" width="370" height="26" as="geometry"/>
                </mxCell>
                <mxCell id="lI1AC3695uIBytSDKQQq-52" value="- debt: Debt" style="text;strokeColor=none;fillColor=none;align=left;verticalAlign=top;spacingLeft=4;spacingRight=4;overflow=hidden;rotatable=0;points=[[0,0.5],[1,0.5]];portConstraint=eastwest;" parent="Sv2H_rABcHJF4czR625y-7" vertex="1">
                    <mxGeometry y="156" width="370" height="26" as="geometry"/>
                </mxCell>
                <mxCell id="lI1AC3695uIBytSDKQQq-53" value="- registrationApplication: LectureRegistrationApplication" style="text;strokeColor=none;fillColor=none;align=left;verticalAlign=top;spacingLeft=4;spacingRight=4;overflow=hidden;rotatable=0;points=[[0,0.5],[1,0.5]];portConstraint=eastwest;" parent="Sv2H_rABcHJF4czR625y-7" vertex="1">
                    <mxGeometry y="182" width="370" height="26" as="geometry"/>
                </mxCell>
                <mxCell id="Sv2H_rABcHJF4czR625y-9" value="" style="line;strokeWidth=1;fillColor=none;align=left;verticalAlign=middle;spacingTop=-1;spacingLeft=3;spacingRight=3;rotatable=0;labelPosition=right;points=[];portConstraint=eastwest;strokeColor=inherit;" parent="Sv2H_rABcHJF4czR625y-7" vertex="1">
                    <mxGeometry y="208" width="370" height="8" as="geometry"/>
                </mxCell>
                <mxCell id="BRYjogfGwO4EZ4AMCY0b-4" value="&lt;&lt;constructor&gt;&gt;Student()" style="text;strokeColor=none;fillColor=none;align=left;verticalAlign=top;spacingLeft=4;spacingRight=4;overflow=hidden;rotatable=0;points=[[0,0.5],[1,0.5]];portConstraint=eastwest;" parent="Sv2H_rABcHJF4czR625y-7" vertex="1">
                    <mxGeometry y="216" width="370" height="24" as="geometry"/>
                </mxCell>
                <mxCell id="Sv2H_rABcHJF4czR625y-13" value="+ getAdvisor(): Advisor" style="text;strokeColor=none;fillColor=none;align=left;verticalAlign=top;spacingLeft=4;spacingRight=4;overflow=hidden;rotatable=0;points=[[0,0.5],[1,0.5]];portConstraint=eastwest;" parent="Sv2H_rABcHJF4czR625y-7" vertex="1">
                    <mxGeometry y="240" width="370" height="26" as="geometry"/>
                </mxCell>
                <mxCell id="GpqEzXDei8LeBioLYVpC-30" value="+ getID(): String" style="text;strokeColor=none;fillColor=none;align=left;verticalAlign=top;spacingLeft=4;spacingRight=4;overflow=hidden;rotatable=0;points=[[0,0.5],[1,0.5]];portConstraint=eastwest;" parent="Sv2H_rABcHJF4czR625y-7" vertex="1">
                    <mxGeometry y="266" width="370" height="26" as="geometry"/>
                </mxCell>
                <mxCell id="GpqEzXDei8LeBioLYVpC-31" value="+ getListOfLectures(): ArrayList&lt;Lecture&gt;" style="text;strokeColor=none;fillColor=none;align=left;verticalAlign=top;spacingLeft=4;spacingRight=4;overflow=hidden;rotatable=0;points=[[0,0.5],[1,0.5]];portConstraint=eastwest;" parent="Sv2H_rABcHJF4czR625y-7" vertex="1">
                    <mxGeometry y="292" width="370" height="26" as="geometry"/>
                </mxCell>
                <mxCell id="GpqEzXDei8LeBioLYVpC-32" value="+ getTranscript(): Transcript" style="text;strokeColor=none;fillColor=none;align=left;verticalAlign=top;spacingLeft=4;spacingRight=4;overflow=hidden;rotatable=0;points=[[0,0.5],[1,0.5]];portConstraint=eastwest;" parent="Sv2H_rABcHJF4czR625y-7" vertex="1">
                    <mxGeometry y="318" width="370" height="26" as="geometry"/>
                </mxCell>
                <mxCell id="_KJiNsTdMnDBmthVbYk2-1" value="+ getDebt(): Debt" style="text;strokeColor=none;fillColor=none;align=left;verticalAlign=top;spacingLeft=4;spacingRight=4;overflow=hidden;rotatable=0;points=[[0,0.5],[1,0.5]];portConstraint=eastwest;" parent="Sv2H_rABcHJF4czR625y-7" vertex="1">
                    <mxGeometry y="344" width="370" height="26" as="geometry"/>
                </mxCell>
                <mxCell id="_KJiNsTdMnDBmthVbYk2-2" value="+ getRegistrationApplication(): LectureRegistrationApplication" style="text;strokeColor=none;fillColor=none;align=left;verticalAlign=top;spacingLeft=4;spacingRight=4;overflow=hidden;rotatable=0;points=[[0,0.5],[1,0.5]];portConstraint=eastwest;" parent="Sv2H_rABcHJF4czR625y-7" vertex="1">
                    <mxGeometry y="370" width="370" height="26" as="geometry"/>
                </mxCell>
                <mxCell id="GpqEzXDei8LeBioLYVpC-33" value="+ getDateOfEntry(): Calender" style="text;strokeColor=none;fillColor=none;align=left;verticalAlign=top;spacingLeft=4;spacingRight=4;overflow=hidden;rotatable=0;points=[[0,0.5],[1,0.5]];portConstraint=eastwest;" parent="Sv2H_rABcHJF4czR625y-7" vertex="1">
                    <mxGeometry y="396" width="370" height="26" as="geometry"/>
                </mxCell>
                <mxCell id="GpqEzXDei8LeBioLYVpC-34" value="+ setAdvisor(Advisor): void" style="text;strokeColor=none;fillColor=none;align=left;verticalAlign=top;spacingLeft=4;spacingRight=4;overflow=hidden;rotatable=0;points=[[0,0.5],[1,0.5]];portConstraint=eastwest;" parent="Sv2H_rABcHJF4czR625y-7" vertex="1">
                    <mxGeometry y="422" width="370" height="26" as="geometry"/>
                </mxCell>
                <mxCell id="_KJiNsTdMnDBmthVbYk2-3" value="+ setDebt(Double): void" style="text;strokeColor=none;fillColor=none;align=left;verticalAlign=top;spacingLeft=4;spacingRight=4;overflow=hidden;rotatable=0;points=[[0,0.5],[1,0.5]];portConstraint=eastwest;" parent="Sv2H_rABcHJF4czR625y-7" vertex="1">
                    <mxGeometry y="448" width="370" height="26" as="geometry"/>
                </mxCell>
                <mxCell id="_KJiNsTdMnDBmthVbYk2-4" value="+ setRegistrationApplication(LectureRegistrationApplication): void" style="text;strokeColor=none;fillColor=none;align=left;verticalAlign=top;spacingLeft=4;spacingRight=4;overflow=hidden;rotatable=0;points=[[0,0.5],[1,0.5]];portConstraint=eastwest;" parent="Sv2H_rABcHJF4czR625y-7" vertex="1">
                    <mxGeometry y="474" width="370" height="26" as="geometry"/>
                </mxCell>
                <mxCell id="BRYjogfGwO4EZ4AMCY0b-5" value="+ sendApprovement(): void" style="text;strokeColor=none;fillColor=none;align=left;verticalAlign=top;spacingLeft=4;spacingRight=4;overflow=hidden;rotatable=0;points=[[0,0.5],[1,0.5]];portConstraint=eastwest;" parent="Sv2H_rABcHJF4czR625y-7" vertex="1">
                    <mxGeometry y="500" width="370" height="26" as="geometry"/>
                </mxCell>
                <mxCell id="BRYjogfGwO4EZ4AMCY0b-6" value="+ setId(StudentID): void" style="text;strokeColor=none;fillColor=none;align=left;verticalAlign=top;spacingLeft=4;spacingRight=4;overflow=hidden;rotatable=0;points=[[0,0.5],[1,0.5]];portConstraint=eastwest;" parent="Sv2H_rABcHJF4czR625y-7" vertex="1">
                    <mxGeometry y="526" width="370" height="26" as="geometry"/>
                </mxCell>
                <mxCell id="BRYjogfGwO4EZ4AMCY0b-7" value="+ setTranscript(Transcript): void" style="text;strokeColor=none;fillColor=none;align=left;verticalAlign=top;spacingLeft=4;spacingRight=4;overflow=hidden;rotatable=0;points=[[0,0.5],[1,0.5]];portConstraint=eastwest;" parent="Sv2H_rABcHJF4czR625y-7" vertex="1">
                    <mxGeometry y="552" width="370" height="26" as="geometry"/>
                </mxCell>
                <mxCell id="BRYjogfGwO4EZ4AMCY0b-8" value="+ setDateOfEntry(Calender): void" style="text;strokeColor=none;fillColor=none;align=left;verticalAlign=top;spacingLeft=4;spacingRight=4;overflow=hidden;rotatable=0;points=[[0,0.5],[1,0.5]];portConstraint=eastwest;" parent="Sv2H_rABcHJF4czR625y-7" vertex="1">
                    <mxGeometry y="578" width="370" height="26" as="geometry"/>
                </mxCell>
                <mxCell id="Sv2H_rABcHJF4czR625y-14" value="Instructor" style="swimlane;fontStyle=1;align=center;verticalAlign=top;childLayout=stackLayout;horizontal=1;startSize=26;horizontalStack=0;resizeParent=1;resizeParentMax=0;resizeLast=0;collapsible=1;marginBottom=0;" parent="1" vertex="1">
                    <mxGeometry x="820" y="410" width="240" height="320" as="geometry">
                        <mxRectangle x="827" y="610" width="100" height="30" as="alternateBounds"/>
                    </mxGeometry>
                </mxCell>
                <mxCell id="Sv2H_rABcHJF4czR625y-15" value="- id: InstructorID" style="text;strokeColor=none;fillColor=none;align=left;verticalAlign=top;spacingLeft=4;spacingRight=4;overflow=hidden;rotatable=0;points=[[0,0.5],[1,0.5]];portConstraint=eastwest;" parent="Sv2H_rABcHJF4czR625y-14" vertex="1">
                    <mxGeometry y="26" width="240" height="26" as="geometry"/>
                </mxCell>
                <mxCell id="Sv2H_rABcHJF4czR625y-17" value="- listOfLectures: ArrayList&lt;Lecture&gt;" style="text;strokeColor=none;fillColor=none;align=left;verticalAlign=top;spacingLeft=4;spacingRight=4;overflow=hidden;rotatable=0;points=[[0,0.5],[1,0.5]];portConstraint=eastwest;" parent="Sv2H_rABcHJF4czR625y-14" vertex="1">
                    <mxGeometry y="52" width="240" height="26" as="geometry"/>
                </mxCell>
                <mxCell id="4mFP-AUnUqjv986MjFmd-2" value="- dateOfEntry: Calender" style="text;strokeColor=none;fillColor=none;align=left;verticalAlign=top;spacingLeft=4;spacingRight=4;overflow=hidden;rotatable=0;points=[[0,0.5],[1,0.5]];portConstraint=eastwest;" parent="Sv2H_rABcHJF4czR625y-14" vertex="1">
                    <mxGeometry y="78" width="240" height="26" as="geometry"/>
                </mxCell>
                <mxCell id="BRYjogfGwO4EZ4AMCY0b-24" value="- instructorType: InstructorType" style="text;strokeColor=none;fillColor=none;align=left;verticalAlign=top;spacingLeft=4;spacingRight=4;overflow=hidden;rotatable=0;points=[[0,0.5],[1,0.5]];portConstraint=eastwest;" parent="Sv2H_rABcHJF4czR625y-14" vertex="1">
                    <mxGeometry y="104" width="240" height="26" as="geometry"/>
                </mxCell>
                <mxCell id="Sv2H_rABcHJF4czR625y-19" value="" style="line;strokeWidth=1;fillColor=none;align=left;verticalAlign=middle;spacingTop=-1;spacingLeft=3;spacingRight=3;rotatable=0;labelPosition=right;points=[];portConstraint=eastwest;strokeColor=inherit;" parent="Sv2H_rABcHJF4czR625y-14" vertex="1">
                    <mxGeometry y="130" width="240" height="8" as="geometry"/>
                </mxCell>
                <mxCell id="4mFP-AUnUqjv986MjFmd-3" value="&lt;&lt;constructor&gt;&gt;Instructor():" style="text;strokeColor=none;fillColor=none;align=left;verticalAlign=top;spacingLeft=4;spacingRight=4;overflow=hidden;rotatable=0;points=[[0,0.5],[1,0.5]];portConstraint=eastwest;" parent="Sv2H_rABcHJF4czR625y-14" vertex="1">
                    <mxGeometry y="138" width="240" height="26" as="geometry"/>
                </mxCell>
                <mxCell id="BRYjogfGwO4EZ4AMCY0b-25" value="+ getID(): String" style="text;strokeColor=none;fillColor=none;align=left;verticalAlign=top;spacingLeft=4;spacingRight=4;overflow=hidden;rotatable=0;points=[[0,0.5],[1,0.5]];portConstraint=eastwest;" parent="Sv2H_rABcHJF4czR625y-14" vertex="1">
                    <mxGeometry y="164" width="240" height="26" as="geometry"/>
                </mxCell>
                <mxCell id="4mFP-AUnUqjv986MjFmd-4" value="+ getListOfLectures(): ArrayList&lt;Lecture&gt;" style="text;strokeColor=none;fillColor=none;align=left;verticalAlign=top;spacingLeft=4;spacingRight=4;overflow=hidden;rotatable=0;points=[[0,0.5],[1,0.5]];portConstraint=eastwest;" parent="Sv2H_rABcHJF4czR625y-14" vertex="1">
                    <mxGeometry y="190" width="240" height="26" as="geometry"/>
                </mxCell>
                <mxCell id="4mFP-AUnUqjv986MjFmd-13" value="+ getDateOfEntry(): Calender" style="text;strokeColor=none;fillColor=none;align=left;verticalAlign=top;spacingLeft=4;spacingRight=4;overflow=hidden;rotatable=0;points=[[0,0.5],[1,0.5]];portConstraint=eastwest;" parent="Sv2H_rABcHJF4czR625y-14" vertex="1">
                    <mxGeometry y="216" width="240" height="26" as="geometry"/>
                </mxCell>
                <mxCell id="BRYjogfGwO4EZ4AMCY0b-26" value="+ getInstructorType(): InstructorType" style="text;strokeColor=none;fillColor=none;align=left;verticalAlign=top;spacingLeft=4;spacingRight=4;overflow=hidden;rotatable=0;points=[[0,0.5],[1,0.5]];portConstraint=eastwest;" parent="Sv2H_rABcHJF4czR625y-14" vertex="1">
                    <mxGeometry y="242" width="240" height="26" as="geometry"/>
                </mxCell>
                <mxCell id="4mFP-AUnUqjv986MjFmd-14" value="+ addLecture(Lecture): void" style="text;strokeColor=none;fillColor=none;align=left;verticalAlign=top;spacingLeft=4;spacingRight=4;overflow=hidden;rotatable=0;points=[[0,0.5],[1,0.5]];portConstraint=eastwest;" parent="Sv2H_rABcHJF4czR625y-14" vertex="1">
                    <mxGeometry y="268" width="240" height="26" as="geometry"/>
                </mxCell>
                <mxCell id="4mFP-AUnUqjv986MjFmd-15" value="+ removeLecture(Lecture): void" style="text;strokeColor=none;fillColor=none;align=left;verticalAlign=top;spacingLeft=4;spacingRight=4;overflow=hidden;rotatable=0;points=[[0,0.5],[1,0.5]];portConstraint=eastwest;" parent="Sv2H_rABcHJF4czR625y-14" vertex="1">
                    <mxGeometry y="294" width="240" height="26" as="geometry"/>
                </mxCell>
                <mxCell id="Sv2H_rABcHJF4czR625y-21" value="Lecture" style="swimlane;fontStyle=1;align=center;verticalAlign=top;childLayout=stackLayout;horizontal=1;startSize=26;horizontalStack=0;resizeParent=1;resizeParentMax=0;resizeLast=0;collapsible=1;marginBottom=0;" parent="1" vertex="1">
                    <mxGeometry x="440" y="1060" width="290" height="632" as="geometry"/>
                </mxCell>
                <mxCell id="Sv2H_rABcHJF4czR625y-22" value="- id: LectureID" style="text;strokeColor=none;fillColor=none;align=left;verticalAlign=top;spacingLeft=4;spacingRight=4;overflow=hidden;rotatable=0;points=[[0,0.5],[1,0.5]];portConstraint=eastwest;" parent="Sv2H_rABcHJF4czR625y-21" vertex="1">
                    <mxGeometry y="26" width="290" height="26" as="geometry"/>
                </mxCell>
                <mxCell id="Sv2H_rABcHJF4czR625y-24" value="- name: String" style="text;strokeColor=none;fillColor=none;align=left;verticalAlign=top;spacingLeft=4;spacingRight=4;overflow=hidden;rotatable=0;points=[[0,0.5],[1,0.5]];portConstraint=eastwest;" parent="Sv2H_rABcHJF4czR625y-21" vertex="1">
                    <mxGeometry y="52" width="290" height="26" as="geometry"/>
                </mxCell>
                <mxCell id="Sv2H_rABcHJF4czR625y-25" value="- lectureType: LectureType" style="text;strokeColor=none;fillColor=none;align=left;verticalAlign=top;spacingLeft=4;spacingRight=4;overflow=hidden;rotatable=0;points=[[0,0.5],[1,0.5]];portConstraint=eastwest;" parent="Sv2H_rABcHJF4czR625y-21" vertex="1">
                    <mxGeometry y="78" width="290" height="26" as="geometry"/>
                </mxCell>
                <mxCell id="Sv2H_rABcHJF4czR625y-28" value="- credit: int" style="text;strokeColor=none;fillColor=none;align=left;verticalAlign=top;spacingLeft=4;spacingRight=4;overflow=hidden;rotatable=0;points=[[0,0.5],[1,0.5]];portConstraint=eastwest;" parent="Sv2H_rABcHJF4czR625y-21" vertex="1">
                    <mxGeometry y="104" width="290" height="26" as="geometry"/>
                </mxCell>
                <mxCell id="Sv2H_rABcHJF4czR625y-29" value="- sessions: ArrayList&lt;LectureSession&gt;" style="text;strokeColor=none;fillColor=none;align=left;verticalAlign=top;spacingLeft=4;spacingRight=4;overflow=hidden;rotatable=0;points=[[0,0.5],[1,0.5]];portConstraint=eastwest;" parent="Sv2H_rABcHJF4czR625y-21" vertex="1">
                    <mxGeometry y="130" width="290" height="26" as="geometry"/>
                </mxCell>
                <mxCell id="Sv2H_rABcHJF4czR625y-30" value="- prerequisities: ArrayList&lt;Lecture&gt;" style="text;strokeColor=none;fillColor=none;align=left;verticalAlign=top;spacingLeft=4;spacingRight=4;overflow=hidden;rotatable=0;points=[[0,0.5],[1,0.5]];portConstraint=eastwest;" parent="Sv2H_rABcHJF4czR625y-21" vertex="1">
                    <mxGeometry y="156" width="290" height="26" as="geometry"/>
                </mxCell>
                <mxCell id="Sv2H_rABcHJF4czR625y-31" value="- quota: int" style="text;strokeColor=none;fillColor=none;align=left;verticalAlign=top;spacingLeft=4;spacingRight=4;overflow=hidden;rotatable=0;points=[[0,0.5],[1,0.5]];portConstraint=eastwest;" parent="Sv2H_rABcHJF4czR625y-21" vertex="1">
                    <mxGeometry y="182" width="290" height="26" as="geometry"/>
                </mxCell>
                <mxCell id="Sv2H_rABcHJF4czR625y-23" value="" style="line;strokeWidth=1;fillColor=none;align=left;verticalAlign=middle;spacingTop=-1;spacingLeft=3;spacingRight=3;rotatable=0;labelPosition=right;points=[];portConstraint=eastwest;strokeColor=inherit;" parent="Sv2H_rABcHJF4czR625y-21" vertex="1">
                    <mxGeometry y="208" width="290" height="8" as="geometry"/>
                </mxCell>
                <mxCell id="BRYjogfGwO4EZ4AMCY0b-28" value="&lt;&lt;constructor&gt;&gt;Lecture()" style="text;strokeColor=none;fillColor=none;align=left;verticalAlign=top;spacingLeft=4;spacingRight=4;overflow=hidden;rotatable=0;points=[[0,0.5],[1,0.5]];portConstraint=eastwest;" parent="Sv2H_rABcHJF4czR625y-21" vertex="1">
                    <mxGeometry y="216" width="290" height="26" as="geometry"/>
                </mxCell>
                <mxCell id="4mFP-AUnUqjv986MjFmd-18" value="+ getID(): String" style="text;strokeColor=none;fillColor=none;align=left;verticalAlign=top;spacingLeft=4;spacingRight=4;overflow=hidden;rotatable=0;points=[[0,0.5],[1,0.5]];portConstraint=eastwest;" parent="Sv2H_rABcHJF4czR625y-21" vertex="1">
                    <mxGeometry y="242" width="290" height="26" as="geometry"/>
                </mxCell>
                <mxCell id="4mFP-AUnUqjv986MjFmd-19" value="+ getName(): String" style="text;strokeColor=none;fillColor=none;align=left;verticalAlign=top;spacingLeft=4;spacingRight=4;overflow=hidden;rotatable=0;points=[[0,0.5],[1,0.5]];portConstraint=eastwest;" parent="Sv2H_rABcHJF4czR625y-21" vertex="1">
                    <mxGeometry y="268" width="290" height="26" as="geometry"/>
                </mxCell>
                <mxCell id="4mFP-AUnUqjv986MjFmd-20" value="+ getLectureType(): LectureType" style="text;strokeColor=none;fillColor=none;align=left;verticalAlign=top;spacingLeft=4;spacingRight=4;overflow=hidden;rotatable=0;points=[[0,0.5],[1,0.5]];portConstraint=eastwest;" parent="Sv2H_rABcHJF4czR625y-21" vertex="1">
                    <mxGeometry y="294" width="290" height="26" as="geometry"/>
                </mxCell>
                <mxCell id="4mFP-AUnUqjv986MjFmd-21" value="+ getCredit(): int" style="text;strokeColor=none;fillColor=none;align=left;verticalAlign=top;spacingLeft=4;spacingRight=4;overflow=hidden;rotatable=0;points=[[0,0.5],[1,0.5]];portConstraint=eastwest;" parent="Sv2H_rABcHJF4czR625y-21" vertex="1">
                    <mxGeometry y="320" width="290" height="26" as="geometry"/>
                </mxCell>
                <mxCell id="4mFP-AUnUqjv986MjFmd-22" value="+ getSessions(): ArrayList&lt;LectureSession&gt;" style="text;strokeColor=none;fillColor=none;align=left;verticalAlign=top;spacingLeft=4;spacingRight=4;overflow=hidden;rotatable=0;points=[[0,0.5],[1,0.5]];portConstraint=eastwest;" parent="Sv2H_rABcHJF4czR625y-21" vertex="1">
                    <mxGeometry y="346" width="290" height="26" as="geometry"/>
                </mxCell>
                <mxCell id="4mFP-AUnUqjv986MjFmd-23" value="+ getPrerequisities(): ArrayList&lt;Lecture&gt;" style="text;strokeColor=none;fillColor=none;align=left;verticalAlign=top;spacingLeft=4;spacingRight=4;overflow=hidden;rotatable=0;points=[[0,0.5],[1,0.5]];portConstraint=eastwest;" parent="Sv2H_rABcHJF4czR625y-21" vertex="1">
                    <mxGeometry y="372" width="290" height="26" as="geometry"/>
                </mxCell>
                <mxCell id="4mFP-AUnUqjv986MjFmd-24" value="+ getQuota(): int" style="text;strokeColor=none;fillColor=none;align=left;verticalAlign=top;spacingLeft=4;spacingRight=4;overflow=hidden;rotatable=0;points=[[0,0.5],[1,0.5]];portConstraint=eastwest;" parent="Sv2H_rABcHJF4czR625y-21" vertex="1">
                    <mxGeometry y="398" width="290" height="26" as="geometry"/>
                </mxCell>
                <mxCell id="4mFP-AUnUqjv986MjFmd-25" value="+ setName(String): void" style="text;strokeColor=none;fillColor=none;align=left;verticalAlign=top;spacingLeft=4;spacingRight=4;overflow=hidden;rotatable=0;points=[[0,0.5],[1,0.5]];portConstraint=eastwest;" parent="Sv2H_rABcHJF4czR625y-21" vertex="1">
                    <mxGeometry y="424" width="290" height="26" as="geometry"/>
                </mxCell>
                <mxCell id="4mFP-AUnUqjv986MjFmd-26" value="+ setLectureType(LectureType): void" style="text;strokeColor=none;fillColor=none;align=left;verticalAlign=top;spacingLeft=4;spacingRight=4;overflow=hidden;rotatable=0;points=[[0,0.5],[1,0.5]];portConstraint=eastwest;" parent="Sv2H_rABcHJF4czR625y-21" vertex="1">
                    <mxGeometry y="450" width="290" height="26" as="geometry"/>
                </mxCell>
                <mxCell id="4mFP-AUnUqjv986MjFmd-27" value="+ setCredit(int): void" style="text;strokeColor=none;fillColor=none;align=left;verticalAlign=top;spacingLeft=4;spacingRight=4;overflow=hidden;rotatable=0;points=[[0,0.5],[1,0.5]];portConstraint=eastwest;" parent="Sv2H_rABcHJF4czR625y-21" vertex="1">
                    <mxGeometry y="476" width="290" height="26" as="geometry"/>
                </mxCell>
                <mxCell id="4mFP-AUnUqjv986MjFmd-28" value="+ setQuota(int): void" style="text;strokeColor=none;fillColor=none;align=left;verticalAlign=top;spacingLeft=4;spacingRight=4;overflow=hidden;rotatable=0;points=[[0,0.5],[1,0.5]];portConstraint=eastwest;" parent="Sv2H_rABcHJF4czR625y-21" vertex="1">
                    <mxGeometry y="502" width="290" height="26" as="geometry"/>
                </mxCell>
                <mxCell id="4mFP-AUnUqjv986MjFmd-29" value="+ addLectureSession(LectureSession): void" style="text;strokeColor=none;fillColor=none;align=left;verticalAlign=top;spacingLeft=4;spacingRight=4;overflow=hidden;rotatable=0;points=[[0,0.5],[1,0.5]];portConstraint=eastwest;" parent="Sv2H_rABcHJF4czR625y-21" vertex="1">
                    <mxGeometry y="528" width="290" height="26" as="geometry"/>
                </mxCell>
                <mxCell id="4mFP-AUnUqjv986MjFmd-30" value="+ removeLectureSession(LectureSession): void" style="text;strokeColor=none;fillColor=none;align=left;verticalAlign=top;spacingLeft=4;spacingRight=4;overflow=hidden;rotatable=0;points=[[0,0.5],[1,0.5]];portConstraint=eastwest;" parent="Sv2H_rABcHJF4czR625y-21" vertex="1">
                    <mxGeometry y="554" width="290" height="26" as="geometry"/>
                </mxCell>
                <mxCell id="4mFP-AUnUqjv986MjFmd-31" value="+ addPrerequisitielLecture(Lecture): void" style="text;strokeColor=none;fillColor=none;align=left;verticalAlign=top;spacingLeft=4;spacingRight=4;overflow=hidden;rotatable=0;points=[[0,0.5],[1,0.5]];portConstraint=eastwest;" parent="Sv2H_rABcHJF4czR625y-21" vertex="1">
                    <mxGeometry y="580" width="290" height="26" as="geometry"/>
                </mxCell>
                <mxCell id="4mFP-AUnUqjv986MjFmd-32" value="+ removePrerequisitielLecture(Lecture): void" style="text;strokeColor=none;fillColor=none;align=left;verticalAlign=top;spacingLeft=4;spacingRight=4;overflow=hidden;rotatable=0;points=[[0,0.5],[1,0.5]];portConstraint=eastwest;" parent="Sv2H_rABcHJF4czR625y-21" vertex="1">
                    <mxGeometry y="606" width="290" height="26" as="geometry"/>
                </mxCell>
                <mxCell id="Sv2H_rABcHJF4czR625y-33" value="Advisor" style="swimlane;fontStyle=1;align=center;verticalAlign=top;childLayout=stackLayout;horizontal=1;startSize=26;horizontalStack=0;resizeParent=1;resizeParentMax=0;resizeLast=0;collapsible=1;marginBottom=0;" parent="1" vertex="1">
                    <mxGeometry x="750" y="812" width="380" height="202" as="geometry"/>
                </mxCell>
                <mxCell id="Sv2H_rABcHJF4czR625y-34" value="- listOfStudents:ArrayList&lt;Student&gt; " style="text;strokeColor=none;fillColor=none;align=left;verticalAlign=top;spacingLeft=4;spacingRight=4;overflow=hidden;rotatable=0;points=[[0,0.5],[1,0.5]];portConstraint=eastwest;" parent="Sv2H_rABcHJF4czR625y-33" vertex="1">
                    <mxGeometry y="26" width="380" height="26" as="geometry"/>
                </mxCell>
                <mxCell id="lI1AC3695uIBytSDKQQq-6" value="- listOfApplications:ArrayList&lt;LectureRegistrationApplication&gt;" style="text;strokeColor=none;fillColor=none;align=left;verticalAlign=top;spacingLeft=4;spacingRight=4;overflow=hidden;rotatable=0;points=[[0,0.5],[1,0.5]];portConstraint=eastwest;" parent="Sv2H_rABcHJF4czR625y-33" vertex="1">
                    <mxGeometry y="52" width="380" height="30" as="geometry"/>
                </mxCell>
                <mxCell id="Sv2H_rABcHJF4czR625y-36" value="" style="line;strokeWidth=1;fillColor=none;align=left;verticalAlign=middle;spacingTop=-1;spacingLeft=3;spacingRight=3;rotatable=0;labelPosition=right;points=[];portConstraint=eastwest;strokeColor=inherit;" parent="Sv2H_rABcHJF4czR625y-33" vertex="1">
                    <mxGeometry y="82" width="380" height="8" as="geometry"/>
                </mxCell>
                <mxCell id="cAbqjUgSmoloA-8wXHxn-1" value="&lt;&lt;constructor&gt;&gt;Advisor()" style="text;strokeColor=none;fillColor=none;align=left;verticalAlign=top;spacingLeft=4;spacingRight=4;overflow=hidden;rotatable=0;points=[[0,0.5],[1,0.5]];portConstraint=eastwest;" parent="Sv2H_rABcHJF4czR625y-33" vertex="1">
                    <mxGeometry y="90" width="380" height="26" as="geometry"/>
                </mxCell>
                <mxCell id="lI1AC3695uIBytSDKQQq-8" value="+ getListOfStudents():ArrayList&lt;Student&gt; " style="text;strokeColor=none;fillColor=none;align=left;verticalAlign=top;spacingLeft=4;spacingRight=4;overflow=hidden;rotatable=0;points=[[0,0.5],[1,0.5]];portConstraint=eastwest;" parent="Sv2H_rABcHJF4czR625y-33" vertex="1">
                    <mxGeometry y="116" width="380" height="26" as="geometry"/>
                </mxCell>
                <mxCell id="lI1AC3695uIBytSDKQQq-7" value="+ getListOfApplications(): ArrayList&lt;LectureRegistrationApplication&gt;" style="text;strokeColor=none;fillColor=none;align=left;verticalAlign=top;spacingLeft=4;spacingRight=4;overflow=hidden;rotatable=0;points=[[0,0.5],[1,0.5]];portConstraint=eastwest;" parent="Sv2H_rABcHJF4czR625y-33" vertex="1">
                    <mxGeometry y="142" width="380" height="30" as="geometry"/>
                </mxCell>
                <mxCell id="lI1AC3695uIBytSDKQQq-9" value="+ approveApplications(LectureRegistrationApplication): void" style="text;strokeColor=none;fillColor=none;align=left;verticalAlign=top;spacingLeft=4;spacingRight=4;overflow=hidden;rotatable=0;points=[[0,0.5],[1,0.5]];portConstraint=eastwest;" parent="Sv2H_rABcHJF4czR625y-33" vertex="1">
                    <mxGeometry y="172" width="380" height="30" as="geometry"/>
                </mxCell>
                <mxCell id="Sv2H_rABcHJF4czR625y-38" value="&lt;&lt;Enum&gt;&gt;&#10;LectureHour" style="swimlane;fontStyle=1;align=center;verticalAlign=top;childLayout=stackLayout;horizontal=1;startSize=40;horizontalStack=0;resizeParent=1;resizeParentMax=0;resizeLast=0;collapsible=1;marginBottom=0;" parent="1" vertex="1">
                    <mxGeometry x="1110" y="132" width="160" height="80" as="geometry"/>
                </mxCell>
                <mxCell id="Sv2H_rABcHJF4czR625y-39" value="YES&#10;NO" style="text;strokeColor=none;fillColor=none;align=left;verticalAlign=top;spacingLeft=4;spacingRight=4;overflow=hidden;rotatable=0;points=[[0,0.5],[1,0.5]];portConstraint=eastwest;" parent="Sv2H_rABcHJF4czR625y-38" vertex="1">
                    <mxGeometry y="40" width="160" height="40" as="geometry"/>
                </mxCell>
                <mxCell id="Sv2H_rABcHJF4czR625y-42" value="&lt;&lt;interface&gt;&gt;&#10;UniqueID" style="swimlane;fontStyle=1;align=center;verticalAlign=top;childLayout=stackLayout;horizontal=1;startSize=40;horizontalStack=0;resizeParent=1;resizeParentMax=0;resizeLast=0;collapsible=1;marginBottom=0;" parent="1" vertex="1">
                    <mxGeometry x="60" y="194" width="160" height="126" as="geometry"/>
                </mxCell>
                <mxCell id="Sv2H_rABcHJF4czR625y-44" value="" style="line;strokeWidth=1;fillColor=none;align=left;verticalAlign=middle;spacingTop=-1;spacingLeft=3;spacingRight=3;rotatable=0;labelPosition=right;points=[];portConstraint=eastwest;strokeColor=inherit;" parent="Sv2H_rABcHJF4czR625y-42" vertex="1">
                    <mxGeometry y="40" width="160" height="8" as="geometry"/>
                </mxCell>
                <mxCell id="Sv2H_rABcHJF4czR625y-45" value="+ setID(String): void" style="text;strokeColor=none;fillColor=none;align=left;verticalAlign=top;spacingLeft=4;spacingRight=4;overflow=hidden;rotatable=0;points=[[0,0.5],[1,0.5]];portConstraint=eastwest;" parent="Sv2H_rABcHJF4czR625y-42" vertex="1">
                    <mxGeometry y="48" width="160" height="26" as="geometry"/>
                </mxCell>
                <mxCell id="GpqEzXDei8LeBioLYVpC-1" value="+ getID(): String" style="text;strokeColor=none;fillColor=none;align=left;verticalAlign=top;spacingLeft=4;spacingRight=4;overflow=hidden;rotatable=0;points=[[0,0.5],[1,0.5]];portConstraint=eastwest;" parent="Sv2H_rABcHJF4czR625y-42" vertex="1">
                    <mxGeometry y="74" width="160" height="26" as="geometry"/>
                </mxCell>
                <mxCell id="BRYjogfGwO4EZ4AMCY0b-1" value="+ digitFixer(int): String" style="text;strokeColor=none;fillColor=none;align=left;verticalAlign=top;spacingLeft=4;spacingRight=4;overflow=hidden;rotatable=0;points=[[0,0.5],[1,0.5]];portConstraint=eastwest;" parent="Sv2H_rABcHJF4czR625y-42" vertex="1">
                    <mxGeometry y="100" width="160" height="26" as="geometry"/>
                </mxCell>
                <mxCell id="Sv2H_rABcHJF4czR625y-46" value="LectureID" style="swimlane;fontStyle=1;align=center;verticalAlign=top;childLayout=stackLayout;horizontal=1;startSize=26;horizontalStack=0;resizeParent=1;resizeParentMax=0;resizeLast=0;collapsible=1;marginBottom=0;" parent="1" vertex="1">
                    <mxGeometry x="320" y="180" width="180" height="190" as="geometry"/>
                </mxCell>
                <mxCell id="Sv2H_rABcHJF4czR625y-49" value="- departmentCode: String" style="text;strokeColor=none;fillColor=none;align=left;verticalAlign=top;spacingLeft=4;spacingRight=4;overflow=hidden;rotatable=0;points=[[0,0.5],[1,0.5]];portConstraint=eastwest;" parent="Sv2H_rABcHJF4czR625y-46" vertex="1">
                    <mxGeometry y="26" width="180" height="26" as="geometry"/>
                </mxCell>
                <mxCell id="GpqEzXDei8LeBioLYVpC-2" value="- yearCode: int" style="text;strokeColor=none;fillColor=none;align=left;verticalAlign=top;spacingLeft=4;spacingRight=4;overflow=hidden;rotatable=0;points=[[0,0.5],[1,0.5]];portConstraint=eastwest;" parent="Sv2H_rABcHJF4czR625y-46" vertex="1">
                    <mxGeometry y="52" width="180" height="26" as="geometry"/>
                </mxCell>
                <mxCell id="GpqEzXDei8LeBioLYVpC-3" value="- LectureCode: int" style="text;strokeColor=none;fillColor=none;align=left;verticalAlign=top;spacingLeft=4;spacingRight=4;overflow=hidden;rotatable=0;points=[[0,0.5],[1,0.5]];portConstraint=eastwest;" parent="Sv2H_rABcHJF4czR625y-46" vertex="1">
                    <mxGeometry y="78" width="180" height="26" as="geometry"/>
                </mxCell>
                <mxCell id="Sv2H_rABcHJF4czR625y-48" value="" style="line;strokeWidth=1;fillColor=none;align=left;verticalAlign=middle;spacingTop=-1;spacingLeft=3;spacingRight=3;rotatable=0;labelPosition=right;points=[];portConstraint=eastwest;strokeColor=inherit;" parent="Sv2H_rABcHJF4czR625y-46" vertex="1">
                    <mxGeometry y="104" width="180" height="8" as="geometry"/>
                </mxCell>
                <mxCell id="BRYjogfGwO4EZ4AMCY0b-2" value="&lt;&lt;constructor&gt;&gt;LectureID()" style="text;strokeColor=none;fillColor=none;align=left;verticalAlign=top;spacingLeft=4;spacingRight=4;overflow=hidden;rotatable=0;points=[[0,0.5],[1,0.5]];portConstraint=eastwest;" parent="Sv2H_rABcHJF4czR625y-46" vertex="1">
                    <mxGeometry y="112" width="180" height="26" as="geometry"/>
                </mxCell>
                <mxCell id="GpqEzXDei8LeBioLYVpC-4" value="+ setID(String, int, String): void" style="text;strokeColor=none;fillColor=none;align=left;verticalAlign=top;spacingLeft=4;spacingRight=4;overflow=hidden;rotatable=0;points=[[0,0.5],[1,0.5]];portConstraint=eastwest;" parent="Sv2H_rABcHJF4czR625y-46" vertex="1">
                    <mxGeometry y="138" width="180" height="26" as="geometry"/>
                </mxCell>
                <mxCell id="GpqEzXDei8LeBioLYVpC-5" value="+ getID(): String" style="text;strokeColor=none;fillColor=none;align=left;verticalAlign=top;spacingLeft=4;spacingRight=4;overflow=hidden;rotatable=0;points=[[0,0.5],[1,0.5]];portConstraint=eastwest;" parent="Sv2H_rABcHJF4czR625y-46" vertex="1">
                    <mxGeometry y="164" width="180" height="26" as="geometry"/>
                </mxCell>
                <mxCell id="Sv2H_rABcHJF4czR625y-70" value="Transcript" style="swimlane;fontStyle=1;align=center;verticalAlign=top;childLayout=stackLayout;horizontal=1;startSize=26;horizontalStack=0;resizeParent=1;resizeParentMax=0;resizeLast=0;collapsible=1;marginBottom=0;" parent="1" vertex="1">
                    <mxGeometry x="50" y="616" width="230" height="398" as="geometry"/>
                </mxCell>
                <mxCell id="Sv2H_rABcHJF4czR625y-71" value="- student: Student" style="text;strokeColor=none;fillColor=none;align=left;verticalAlign=top;spacingLeft=4;spacingRight=4;overflow=hidden;rotatable=0;points=[[0,0.5],[1,0.5]];portConstraint=eastwest;" parent="Sv2H_rABcHJF4czR625y-70" vertex="1">
                    <mxGeometry y="26" width="230" height="26" as="geometry"/>
                </mxCell>
                <mxCell id="GpqEzXDei8LeBioLYVpC-36" value="- listOfSemester: ArrayList&lt;Semester&gt;" style="text;strokeColor=none;fillColor=none;align=left;verticalAlign=top;spacingLeft=4;spacingRight=4;overflow=hidden;rotatable=0;points=[[0,0.5],[1,0.5]];portConstraint=eastwest;" parent="Sv2H_rABcHJF4czR625y-70" vertex="1">
                    <mxGeometry y="52" width="230" height="26" as="geometry"/>
                </mxCell>
                <mxCell id="GpqEzXDei8LeBioLYVpC-37" value="- gano: Double" style="text;strokeColor=none;fillColor=none;align=left;verticalAlign=top;spacingLeft=4;spacingRight=4;overflow=hidden;rotatable=0;points=[[0,0.5],[1,0.5]];portConstraint=eastwest;" parent="Sv2H_rABcHJF4czR625y-70" vertex="1">
                    <mxGeometry y="78" width="230" height="26" as="geometry"/>
                </mxCell>
                <mxCell id="GpqEzXDei8LeBioLYVpC-39" value="- totatCreditsTaken: int" style="text;strokeColor=none;fillColor=none;align=left;verticalAlign=top;spacingLeft=4;spacingRight=4;overflow=hidden;rotatable=0;points=[[0,0.5],[1,0.5]];portConstraint=eastwest;" parent="Sv2H_rABcHJF4czR625y-70" vertex="1">
                    <mxGeometry y="104" width="230" height="26" as="geometry"/>
                </mxCell>
                <mxCell id="GpqEzXDei8LeBioLYVpC-40" value="- totalCreditsCompleted: int" style="text;strokeColor=none;fillColor=none;align=left;verticalAlign=top;spacingLeft=4;spacingRight=4;overflow=hidden;rotatable=0;points=[[0,0.5],[1,0.5]];portConstraint=eastwest;" parent="Sv2H_rABcHJF4czR625y-70" vertex="1">
                    <mxGeometry y="130" width="230" height="26" as="geometry"/>
                </mxCell>
                <mxCell id="GpqEzXDei8LeBioLYVpC-41" value="- points: Double" style="text;strokeColor=none;fillColor=none;align=left;verticalAlign=top;spacingLeft=4;spacingRight=4;overflow=hidden;rotatable=0;points=[[0,0.5],[1,0.5]];portConstraint=eastwest;" parent="Sv2H_rABcHJF4czR625y-70" vertex="1">
                    <mxGeometry y="156" width="230" height="26" as="geometry"/>
                </mxCell>
                <mxCell id="Sv2H_rABcHJF4czR625y-72" value="" style="line;strokeWidth=1;fillColor=none;align=left;verticalAlign=middle;spacingTop=-1;spacingLeft=3;spacingRight=3;rotatable=0;labelPosition=right;points=[];portConstraint=eastwest;strokeColor=inherit;" parent="Sv2H_rABcHJF4czR625y-70" vertex="1">
                    <mxGeometry y="182" width="230" height="8" as="geometry"/>
                </mxCell>
                <mxCell id="Sv2H_rABcHJF4czR625y-73" value="&lt;&lt;constructor&gt;&gt;Transcript" style="text;strokeColor=none;fillColor=none;align=left;verticalAlign=top;spacingLeft=4;spacingRight=4;overflow=hidden;rotatable=0;points=[[0,0.5],[1,0.5]];portConstraint=eastwest;" parent="Sv2H_rABcHJF4czR625y-70" vertex="1">
                    <mxGeometry y="190" width="230" height="26" as="geometry"/>
                </mxCell>
                <mxCell id="BRYjogfGwO4EZ4AMCY0b-9" value="+ getStudent(): Student" style="text;strokeColor=none;fillColor=none;align=left;verticalAlign=top;spacingLeft=4;spacingRight=4;overflow=hidden;rotatable=0;points=[[0,0.5],[1,0.5]];portConstraint=eastwest;" parent="Sv2H_rABcHJF4czR625y-70" vertex="1">
                    <mxGeometry y="216" width="230" height="26" as="geometry"/>
                </mxCell>
                <mxCell id="n8ZZXpKbyfj6zKWUehs0-1" value="+ getListOfSemester(): ArrayList&lt;Semester&gt;" style="text;strokeColor=none;fillColor=none;align=left;verticalAlign=top;spacingLeft=4;spacingRight=4;overflow=hidden;rotatable=0;points=[[0,0.5],[1,0.5]];portConstraint=eastwest;" parent="Sv2H_rABcHJF4czR625y-70" vertex="1">
                    <mxGeometry y="242" width="230" height="26" as="geometry"/>
                </mxCell>
                <mxCell id="n8ZZXpKbyfj6zKWUehs0-2" value="+ getGano(): Double" style="text;strokeColor=none;fillColor=none;align=left;verticalAlign=top;spacingLeft=4;spacingRight=4;overflow=hidden;rotatable=0;points=[[0,0.5],[1,0.5]];portConstraint=eastwest;" parent="Sv2H_rABcHJF4czR625y-70" vertex="1">
                    <mxGeometry y="268" width="230" height="26" as="geometry"/>
                </mxCell>
                <mxCell id="n8ZZXpKbyfj6zKWUehs0-4" value="+ getTotatCreditsTaken(): int" style="text;strokeColor=none;fillColor=none;align=left;verticalAlign=top;spacingLeft=4;spacingRight=4;overflow=hidden;rotatable=0;points=[[0,0.5],[1,0.5]];portConstraint=eastwest;" parent="Sv2H_rABcHJF4czR625y-70" vertex="1">
                    <mxGeometry y="294" width="230" height="26" as="geometry"/>
                </mxCell>
                <mxCell id="n8ZZXpKbyfj6zKWUehs0-5" value="+ getTotalCreditsCompleted(): int" style="text;strokeColor=none;fillColor=none;align=left;verticalAlign=top;spacingLeft=4;spacingRight=4;overflow=hidden;rotatable=0;points=[[0,0.5],[1,0.5]];portConstraint=eastwest;" parent="Sv2H_rABcHJF4czR625y-70" vertex="1">
                    <mxGeometry y="320" width="230" height="26" as="geometry"/>
                </mxCell>
                <mxCell id="n8ZZXpKbyfj6zKWUehs0-6" value="+ getPoints(): Double" style="text;strokeColor=none;fillColor=none;align=left;verticalAlign=top;spacingLeft=4;spacingRight=4;overflow=hidden;rotatable=0;points=[[0,0.5],[1,0.5]];portConstraint=eastwest;" parent="Sv2H_rABcHJF4czR625y-70" vertex="1">
                    <mxGeometry y="346" width="230" height="26" as="geometry"/>
                </mxCell>
                <mxCell id="n8ZZXpKbyfj6zKWUehs0-7" value="+ addSemester(Semester): void" style="text;strokeColor=none;fillColor=none;align=left;verticalAlign=top;spacingLeft=4;spacingRight=4;overflow=hidden;rotatable=0;points=[[0,0.5],[1,0.5]];portConstraint=eastwest;" parent="Sv2H_rABcHJF4czR625y-70" vertex="1">
                    <mxGeometry y="372" width="230" height="26" as="geometry"/>
                </mxCell>
                <mxCell id="Sv2H_rABcHJF4czR625y-74" value="LectureSession" style="swimlane;fontStyle=1;align=center;verticalAlign=top;childLayout=stackLayout;horizontal=1;startSize=26;horizontalStack=0;resizeParent=1;resizeParentMax=0;resizeLast=0;collapsible=1;marginBottom=0;" parent="1" vertex="1">
                    <mxGeometry x="1380" y="642" width="260" height="372" as="geometry"/>
                </mxCell>
                <mxCell id="Sv2H_rABcHJF4czR625y-75" value="- sessionID:  UniqueID" style="text;strokeColor=none;fillColor=none;align=left;verticalAlign=top;spacingLeft=4;spacingRight=4;overflow=hidden;rotatable=0;points=[[0,0.5],[1,0.5]];portConstraint=eastwest;" parent="Sv2H_rABcHJF4czR625y-74" vertex="1">
                    <mxGeometry y="26" width="260" height="26" as="geometry"/>
                </mxCell>
                <mxCell id="_KJiNsTdMnDBmthVbYk2-5" value="- lecture: Lecture" style="text;strokeColor=none;fillColor=none;align=left;verticalAlign=top;spacingLeft=4;spacingRight=4;overflow=hidden;rotatable=0;points=[[0,0.5],[1,0.5]];portConstraint=eastwest;" parent="Sv2H_rABcHJF4czR625y-74" vertex="1">
                    <mxGeometry y="52" width="260" height="26" as="geometry"/>
                </mxCell>
                <mxCell id="4mFP-AUnUqjv986MjFmd-33" value="- sessionHour: LectureHour[][]" style="text;strokeColor=none;fillColor=none;align=left;verticalAlign=top;spacingLeft=4;spacingRight=4;overflow=hidden;rotatable=0;points=[[0,0.5],[1,0.5]];portConstraint=eastwest;" parent="Sv2H_rABcHJF4czR625y-74" vertex="1">
                    <mxGeometry y="78" width="260" height="26" as="geometry"/>
                </mxCell>
                <mxCell id="4mFP-AUnUqjv986MjFmd-34" value="- sessionType: SessionType" style="text;strokeColor=none;fillColor=none;align=left;verticalAlign=top;spacingLeft=4;spacingRight=4;overflow=hidden;rotatable=0;points=[[0,0.5],[1,0.5]];portConstraint=eastwest;" parent="Sv2H_rABcHJF4czR625y-74" vertex="1">
                    <mxGeometry y="104" width="260" height="26" as="geometry"/>
                </mxCell>
                <mxCell id="4mFP-AUnUqjv986MjFmd-35" value="- instructor: Instructor" style="text;strokeColor=none;fillColor=none;align=left;verticalAlign=top;spacingLeft=4;spacingRight=4;overflow=hidden;rotatable=0;points=[[0,0.5],[1,0.5]];portConstraint=eastwest;" parent="Sv2H_rABcHJF4czR625y-74" vertex="1">
                    <mxGeometry y="130" width="260" height="26" as="geometry"/>
                </mxCell>
                <mxCell id="4mFP-AUnUqjv986MjFmd-36" value="- listOfAssistants: ArrayList&lt;Assistant&gt;" style="text;strokeColor=none;fillColor=none;align=left;verticalAlign=top;spacingLeft=4;spacingRight=4;overflow=hidden;rotatable=0;points=[[0,0.5],[1,0.5]];portConstraint=eastwest;" parent="Sv2H_rABcHJF4czR625y-74" vertex="1">
                    <mxGeometry y="156" width="260" height="26" as="geometry"/>
                </mxCell>
                <mxCell id="Sv2H_rABcHJF4czR625y-76" value="" style="line;strokeWidth=1;fillColor=none;align=left;verticalAlign=middle;spacingTop=-1;spacingLeft=3;spacingRight=3;rotatable=0;labelPosition=right;points=[];portConstraint=eastwest;strokeColor=inherit;" parent="Sv2H_rABcHJF4czR625y-74" vertex="1">
                    <mxGeometry y="182" width="260" height="8" as="geometry"/>
                </mxCell>
                <mxCell id="BRYjogfGwO4EZ4AMCY0b-29" value="&lt;&lt;constructor&gt;&gt;LectureSession()" style="text;strokeColor=none;fillColor=none;align=left;verticalAlign=top;spacingLeft=4;spacingRight=4;overflow=hidden;rotatable=0;points=[[0,0.5],[1,0.5]];portConstraint=eastwest;" parent="Sv2H_rABcHJF4czR625y-74" vertex="1">
                    <mxGeometry y="190" width="260" height="26" as="geometry"/>
                </mxCell>
                <mxCell id="Sv2H_rABcHJF4czR625y-77" value="+ getSession(): String" style="text;strokeColor=none;fillColor=none;align=left;verticalAlign=top;spacingLeft=4;spacingRight=4;overflow=hidden;rotatable=0;points=[[0,0.5],[1,0.5]];portConstraint=eastwest;" parent="Sv2H_rABcHJF4czR625y-74" vertex="1">
                    <mxGeometry y="216" width="260" height="26" as="geometry"/>
                </mxCell>
                <mxCell id="lI1AC3695uIBytSDKQQq-2" value="+ getSessionHours(): LectureHour[7][10]" style="text;strokeColor=none;fillColor=none;align=left;verticalAlign=top;spacingLeft=4;spacingRight=4;overflow=hidden;rotatable=0;points=[[0,0.5],[1,0.5]];portConstraint=eastwest;" parent="Sv2H_rABcHJF4czR625y-74" vertex="1">
                    <mxGeometry y="242" width="260" height="26" as="geometry"/>
                </mxCell>
                <mxCell id="lI1AC3695uIBytSDKQQq-3" value="+ getSessionType(): SessionType" style="text;strokeColor=none;fillColor=none;align=left;verticalAlign=top;spacingLeft=4;spacingRight=4;overflow=hidden;rotatable=0;points=[[0,0.5],[1,0.5]];portConstraint=eastwest;" parent="Sv2H_rABcHJF4czR625y-74" vertex="1">
                    <mxGeometry y="268" width="260" height="26" as="geometry"/>
                </mxCell>
                <mxCell id="lI1AC3695uIBytSDKQQq-4" value="+ getInstructor(): Instructor" style="text;strokeColor=none;fillColor=none;align=left;verticalAlign=top;spacingLeft=4;spacingRight=4;overflow=hidden;rotatable=0;points=[[0,0.5],[1,0.5]];portConstraint=eastwest;" parent="Sv2H_rABcHJF4czR625y-74" vertex="1">
                    <mxGeometry y="294" width="260" height="26" as="geometry"/>
                </mxCell>
                <mxCell id="lI1AC3695uIBytSDKQQq-5" value="+ getListOfAssistants():ArrayList&lt;Assistant&gt;" style="text;strokeColor=none;fillColor=none;align=left;verticalAlign=top;spacingLeft=4;spacingRight=4;overflow=hidden;rotatable=0;points=[[0,0.5],[1,0.5]];portConstraint=eastwest;" parent="Sv2H_rABcHJF4czR625y-74" vertex="1">
                    <mxGeometry y="320" width="260" height="26" as="geometry"/>
                </mxCell>
                <mxCell id="BRYjogfGwO4EZ4AMCY0b-30" value="+ getLecture(): Lecture" style="text;strokeColor=none;fillColor=none;align=left;verticalAlign=top;spacingLeft=4;spacingRight=4;overflow=hidden;rotatable=0;points=[[0,0.5],[1,0.5]];portConstraint=eastwest;" parent="Sv2H_rABcHJF4czR625y-74" vertex="1">
                    <mxGeometry y="346" width="260" height="26" as="geometry"/>
                </mxCell>
                <mxCell id="GpqEzXDei8LeBioLYVpC-6" value="StudentID" style="swimlane;fontStyle=1;align=center;verticalAlign=top;childLayout=stackLayout;horizontal=1;startSize=26;horizontalStack=0;resizeParent=1;resizeParentMax=0;resizeLast=0;collapsible=1;marginBottom=0;" parent="1" vertex="1">
                    <mxGeometry x="60" y="398" width="160" height="164" as="geometry"/>
                </mxCell>
                <mxCell id="GpqEzXDei8LeBioLYVpC-7" value="- departmentCode: int" style="text;strokeColor=none;fillColor=none;align=left;verticalAlign=top;spacingLeft=4;spacingRight=4;overflow=hidden;rotatable=0;points=[[0,0.5],[1,0.5]];portConstraint=eastwest;" parent="GpqEzXDei8LeBioLYVpC-6" vertex="1">
                    <mxGeometry y="26" width="160" height="26" as="geometry"/>
                </mxCell>
                <mxCell id="GpqEzXDei8LeBioLYVpC-8" value="- yearCode: int" style="text;strokeColor=none;fillColor=none;align=left;verticalAlign=top;spacingLeft=4;spacingRight=4;overflow=hidden;rotatable=0;points=[[0,0.5],[1,0.5]];portConstraint=eastwest;" parent="GpqEzXDei8LeBioLYVpC-6" vertex="1">
                    <mxGeometry y="52" width="160" height="26" as="geometry"/>
                </mxCell>
                <mxCell id="GpqEzXDei8LeBioLYVpC-9" value="- orderOfPlacement: int" style="text;strokeColor=none;fillColor=none;align=left;verticalAlign=top;spacingLeft=4;spacingRight=4;overflow=hidden;rotatable=0;points=[[0,0.5],[1,0.5]];portConstraint=eastwest;" parent="GpqEzXDei8LeBioLYVpC-6" vertex="1">
                    <mxGeometry y="78" width="160" height="26" as="geometry"/>
                </mxCell>
                <mxCell id="GpqEzXDei8LeBioLYVpC-10" value="" style="line;strokeWidth=1;fillColor=none;align=left;verticalAlign=middle;spacingTop=-1;spacingLeft=3;spacingRight=3;rotatable=0;labelPosition=right;points=[];portConstraint=eastwest;strokeColor=inherit;" parent="GpqEzXDei8LeBioLYVpC-6" vertex="1">
                    <mxGeometry y="104" width="160" height="8" as="geometry"/>
                </mxCell>
                <mxCell id="GpqEzXDei8LeBioLYVpC-11" value="+ setID(int, int, int): void" style="text;strokeColor=none;fillColor=none;align=left;verticalAlign=top;spacingLeft=4;spacingRight=4;overflow=hidden;rotatable=0;points=[[0,0.5],[1,0.5]];portConstraint=eastwest;" parent="GpqEzXDei8LeBioLYVpC-6" vertex="1">
                    <mxGeometry y="112" width="160" height="26" as="geometry"/>
                </mxCell>
                <mxCell id="GpqEzXDei8LeBioLYVpC-12" value="+ getID(): String" style="text;strokeColor=none;fillColor=none;align=left;verticalAlign=top;spacingLeft=4;spacingRight=4;overflow=hidden;rotatable=0;points=[[0,0.5],[1,0.5]];portConstraint=eastwest;" parent="GpqEzXDei8LeBioLYVpC-6" vertex="1">
                    <mxGeometry y="138" width="160" height="26" as="geometry"/>
                </mxCell>
                <mxCell id="GpqEzXDei8LeBioLYVpC-13" value="InstructorID" style="swimlane;fontStyle=1;align=center;verticalAlign=top;childLayout=stackLayout;horizontal=1;startSize=26;horizontalStack=0;resizeParent=1;resizeParentMax=0;resizeLast=0;collapsible=1;marginBottom=0;" parent="1" vertex="1">
                    <mxGeometry x="330" y="20" width="160" height="138" as="geometry"/>
                </mxCell>
                <mxCell id="GpqEzXDei8LeBioLYVpC-14" value="- departmentCode: int" style="text;strokeColor=none;fillColor=none;align=left;verticalAlign=top;spacingLeft=4;spacingRight=4;overflow=hidden;rotatable=0;points=[[0,0.5],[1,0.5]];portConstraint=eastwest;" parent="GpqEzXDei8LeBioLYVpC-13" vertex="1">
                    <mxGeometry y="26" width="160" height="26" as="geometry"/>
                </mxCell>
                <mxCell id="GpqEzXDei8LeBioLYVpC-16" value="- oderOfEntry: int" style="text;strokeColor=none;fillColor=none;align=left;verticalAlign=top;spacingLeft=4;spacingRight=4;overflow=hidden;rotatable=0;points=[[0,0.5],[1,0.5]];portConstraint=eastwest;" parent="GpqEzXDei8LeBioLYVpC-13" vertex="1">
                    <mxGeometry y="52" width="160" height="26" as="geometry"/>
                </mxCell>
                <mxCell id="GpqEzXDei8LeBioLYVpC-17" value="" style="line;strokeWidth=1;fillColor=none;align=left;verticalAlign=middle;spacingTop=-1;spacingLeft=3;spacingRight=3;rotatable=0;labelPosition=right;points=[];portConstraint=eastwest;strokeColor=inherit;" parent="GpqEzXDei8LeBioLYVpC-13" vertex="1">
                    <mxGeometry y="78" width="160" height="8" as="geometry"/>
                </mxCell>
                <mxCell id="GpqEzXDei8LeBioLYVpC-18" value="+ setID(int, int): void" style="text;strokeColor=none;fillColor=none;align=left;verticalAlign=top;spacingLeft=4;spacingRight=4;overflow=hidden;rotatable=0;points=[[0,0.5],[1,0.5]];portConstraint=eastwest;" parent="GpqEzXDei8LeBioLYVpC-13" vertex="1">
                    <mxGeometry y="86" width="160" height="26" as="geometry"/>
                </mxCell>
                <mxCell id="GpqEzXDei8LeBioLYVpC-19" value="+ getID(): String" style="text;strokeColor=none;fillColor=none;align=left;verticalAlign=top;spacingLeft=4;spacingRight=4;overflow=hidden;rotatable=0;points=[[0,0.5],[1,0.5]];portConstraint=eastwest;" parent="GpqEzXDei8LeBioLYVpC-13" vertex="1">
                    <mxGeometry y="112" width="160" height="26" as="geometry"/>
                </mxCell>
                <mxCell id="GpqEzXDei8LeBioLYVpC-20" value="SessionID" style="swimlane;fontStyle=1;align=center;verticalAlign=top;childLayout=stackLayout;horizontal=1;startSize=26;horizontalStack=0;resizeParent=1;resizeParentMax=0;resizeLast=0;collapsible=1;marginBottom=0;" parent="1" vertex="1">
                    <mxGeometry x="60" y="20" width="160" height="112" as="geometry"/>
                </mxCell>
                <mxCell id="GpqEzXDei8LeBioLYVpC-21" value="- id: int" style="text;strokeColor=none;fillColor=none;align=left;verticalAlign=top;spacingLeft=4;spacingRight=4;overflow=hidden;rotatable=0;points=[[0,0.5],[1,0.5]];portConstraint=eastwest;" parent="GpqEzXDei8LeBioLYVpC-20" vertex="1">
                    <mxGeometry y="26" width="160" height="26" as="geometry"/>
                </mxCell>
                <mxCell id="GpqEzXDei8LeBioLYVpC-22" value="" style="line;strokeWidth=1;fillColor=none;align=left;verticalAlign=middle;spacingTop=-1;spacingLeft=3;spacingRight=3;rotatable=0;labelPosition=right;points=[];portConstraint=eastwest;strokeColor=inherit;" parent="GpqEzXDei8LeBioLYVpC-20" vertex="1">
                    <mxGeometry y="52" width="160" height="8" as="geometry"/>
                </mxCell>
                <mxCell id="GpqEzXDei8LeBioLYVpC-23" value="+ setID(int): void" style="text;strokeColor=none;fillColor=none;align=left;verticalAlign=top;spacingLeft=4;spacingRight=4;overflow=hidden;rotatable=0;points=[[0,0.5],[1,0.5]];portConstraint=eastwest;" parent="GpqEzXDei8LeBioLYVpC-20" vertex="1">
                    <mxGeometry y="60" width="160" height="26" as="geometry"/>
                </mxCell>
                <mxCell id="GpqEzXDei8LeBioLYVpC-24" value="+ getID(): String" style="text;strokeColor=none;fillColor=none;align=left;verticalAlign=top;spacingLeft=4;spacingRight=4;overflow=hidden;rotatable=0;points=[[0,0.5],[1,0.5]];portConstraint=eastwest;" parent="GpqEzXDei8LeBioLYVpC-20" vertex="1">
                    <mxGeometry y="86" width="160" height="26" as="geometry"/>
                </mxCell>
                <mxCell id="n8ZZXpKbyfj6zKWUehs0-8" value="Semester" style="swimlane;fontStyle=1;align=center;verticalAlign=top;childLayout=stackLayout;horizontal=1;startSize=26;horizontalStack=0;resizeParent=1;resizeParentMax=0;resizeLast=0;collapsible=1;marginBottom=0;" parent="1" vertex="1">
                    <mxGeometry x="50" y="1060" width="340" height="424" as="geometry"/>
                </mxCell>
                <mxCell id="n8ZZXpKbyfj6zKWUehs0-9" value="- listOfLecturesTaken: HashMap&lt;Lecture,LetterGrade&gt;" style="text;strokeColor=none;fillColor=none;align=left;verticalAlign=top;spacingLeft=4;spacingRight=4;overflow=hidden;rotatable=0;points=[[0,0.5],[1,0.5]];portConstraint=eastwest;" parent="n8ZZXpKbyfj6zKWUehs0-8" vertex="1">
                    <mxGeometry y="26" width="340" height="26" as="geometry"/>
                </mxCell>
                <mxCell id="n8ZZXpKbyfj6zKWUehs0-10" value="- creditsTaken: int" style="text;strokeColor=none;fillColor=none;align=left;verticalAlign=top;spacingLeft=4;spacingRight=4;overflow=hidden;rotatable=0;points=[[0,0.5],[1,0.5]];portConstraint=eastwest;" parent="n8ZZXpKbyfj6zKWUehs0-8" vertex="1">
                    <mxGeometry y="52" width="340" height="26" as="geometry"/>
                </mxCell>
                <mxCell id="n8ZZXpKbyfj6zKWUehs0-11" value="- creditsCompleted: int" style="text;strokeColor=none;fillColor=none;align=left;verticalAlign=top;spacingLeft=4;spacingRight=4;overflow=hidden;rotatable=0;points=[[0,0.5],[1,0.5]];portConstraint=eastwest;" parent="n8ZZXpKbyfj6zKWUehs0-8" vertex="1">
                    <mxGeometry y="78" width="340" height="26" as="geometry"/>
                </mxCell>
                <mxCell id="n8ZZXpKbyfj6zKWUehs0-12" value="- points: double" style="text;strokeColor=none;fillColor=none;align=left;verticalAlign=top;spacingLeft=4;spacingRight=4;overflow=hidden;rotatable=0;points=[[0,0.5],[1,0.5]];portConstraint=eastwest;" parent="n8ZZXpKbyfj6zKWUehs0-8" vertex="1">
                    <mxGeometry y="104" width="340" height="26" as="geometry"/>
                </mxCell>
                <mxCell id="BRYjogfGwO4EZ4AMCY0b-10" value="- yano: double" style="text;strokeColor=none;fillColor=none;align=left;verticalAlign=top;spacingLeft=4;spacingRight=4;overflow=hidden;rotatable=0;points=[[0,0.5],[1,0.5]];portConstraint=eastwest;" parent="n8ZZXpKbyfj6zKWUehs0-8" vertex="1">
                    <mxGeometry y="130" width="340" height="26" as="geometry"/>
                </mxCell>
                <mxCell id="n8ZZXpKbyfj6zKWUehs0-16" value="" style="line;strokeWidth=1;fillColor=none;align=left;verticalAlign=middle;spacingTop=-1;spacingLeft=3;spacingRight=3;rotatable=0;labelPosition=right;points=[];portConstraint=eastwest;strokeColor=inherit;" parent="n8ZZXpKbyfj6zKWUehs0-8" vertex="1">
                    <mxGeometry y="156" width="340" height="8" as="geometry"/>
                </mxCell>
                <mxCell id="BRYjogfGwO4EZ4AMCY0b-11" value="&lt;&lt;constructor&gt;&gt;Semester()" style="text;strokeColor=none;fillColor=none;align=left;verticalAlign=top;spacingLeft=4;spacingRight=4;overflow=hidden;rotatable=0;points=[[0,0.5],[1,0.5]];portConstraint=eastwest;" parent="n8ZZXpKbyfj6zKWUehs0-8" vertex="1">
                    <mxGeometry y="164" width="340" height="26" as="geometry"/>
                </mxCell>
                <mxCell id="n8ZZXpKbyfj6zKWUehs0-25" value="+ getListOfLecturesTaken(): HashMap&lt;Lecture,LetterGrade&gt;" style="text;strokeColor=none;fillColor=none;align=left;verticalAlign=top;spacingLeft=4;spacingRight=4;overflow=hidden;rotatable=0;points=[[0,0.5],[1,0.5]];portConstraint=eastwest;" parent="n8ZZXpKbyfj6zKWUehs0-8" vertex="1">
                    <mxGeometry y="190" width="340" height="26" as="geometry"/>
                </mxCell>
                <mxCell id="n8ZZXpKbyfj6zKWUehs0-26" value="+ getCreditsTaken(): int" style="text;strokeColor=none;fillColor=none;align=left;verticalAlign=top;spacingLeft=4;spacingRight=4;overflow=hidden;rotatable=0;points=[[0,0.5],[1,0.5]];portConstraint=eastwest;" parent="n8ZZXpKbyfj6zKWUehs0-8" vertex="1">
                    <mxGeometry y="216" width="340" height="26" as="geometry"/>
                </mxCell>
                <mxCell id="n8ZZXpKbyfj6zKWUehs0-27" value="+ getCreditsCompleted(): int" style="text;strokeColor=none;fillColor=none;align=left;verticalAlign=top;spacingLeft=4;spacingRight=4;overflow=hidden;rotatable=0;points=[[0,0.5],[1,0.5]];portConstraint=eastwest;" parent="n8ZZXpKbyfj6zKWUehs0-8" vertex="1">
                    <mxGeometry y="242" width="340" height="26" as="geometry"/>
                </mxCell>
                <mxCell id="n8ZZXpKbyfj6zKWUehs0-28" value="+ getPoints(): double" style="text;strokeColor=none;fillColor=none;align=left;verticalAlign=top;spacingLeft=4;spacingRight=4;overflow=hidden;rotatable=0;points=[[0,0.5],[1,0.5]];portConstraint=eastwest;" parent="n8ZZXpKbyfj6zKWUehs0-8" vertex="1">
                    <mxGeometry y="268" width="340" height="26" as="geometry"/>
                </mxCell>
                <mxCell id="BRYjogfGwO4EZ4AMCY0b-12" value="+ getYano(): double" style="text;strokeColor=none;fillColor=none;align=left;verticalAlign=top;spacingLeft=4;spacingRight=4;overflow=hidden;rotatable=0;points=[[0,0.5],[1,0.5]];portConstraint=eastwest;" parent="n8ZZXpKbyfj6zKWUehs0-8" vertex="1">
                    <mxGeometry y="294" width="340" height="26" as="geometry"/>
                </mxCell>
                <mxCell id="n8ZZXpKbyfj6zKWUehs0-21" value="+ setLecture(Lecture,LectureGrade): void" style="text;strokeColor=none;fillColor=none;align=left;verticalAlign=top;spacingLeft=4;spacingRight=4;overflow=hidden;rotatable=0;points=[[0,0.5],[1,0.5]];portConstraint=eastwest;" parent="n8ZZXpKbyfj6zKWUehs0-8" vertex="1">
                    <mxGeometry y="320" width="340" height="26" as="geometry"/>
                </mxCell>
                <mxCell id="n8ZZXpKbyfj6zKWUehs0-22" value="+ setCreditsTaken(int): void" style="text;strokeColor=none;fillColor=none;align=left;verticalAlign=top;spacingLeft=4;spacingRight=4;overflow=hidden;rotatable=0;points=[[0,0.5],[1,0.5]];portConstraint=eastwest;" parent="n8ZZXpKbyfj6zKWUehs0-8" vertex="1">
                    <mxGeometry y="346" width="340" height="26" as="geometry"/>
                </mxCell>
                <mxCell id="n8ZZXpKbyfj6zKWUehs0-29" value="+ setCreditsCompleted(int): void" style="text;strokeColor=none;fillColor=none;align=left;verticalAlign=top;spacingLeft=4;spacingRight=4;overflow=hidden;rotatable=0;points=[[0,0.5],[1,0.5]];portConstraint=eastwest;" parent="n8ZZXpKbyfj6zKWUehs0-8" vertex="1">
                    <mxGeometry y="372" width="340" height="26" as="geometry"/>
                </mxCell>
                <mxCell id="n8ZZXpKbyfj6zKWUehs0-23" value="+ setPoints(double): void" style="text;strokeColor=none;fillColor=none;align=left;verticalAlign=top;spacingLeft=4;spacingRight=4;overflow=hidden;rotatable=0;points=[[0,0.5],[1,0.5]];portConstraint=eastwest;" parent="n8ZZXpKbyfj6zKWUehs0-8" vertex="1">
                    <mxGeometry y="398" width="340" height="26" as="geometry"/>
                </mxCell>
                <mxCell id="4mFP-AUnUqjv986MjFmd-16" value="&lt;&lt;Enum&gt;&gt;&#10;SessionType" style="swimlane;fontStyle=1;align=center;verticalAlign=top;childLayout=stackLayout;horizontal=1;startSize=40;horizontalStack=0;resizeParent=1;resizeParentMax=0;resizeLast=0;collapsible=1;marginBottom=0;" parent="1" vertex="1">
                    <mxGeometry x="1110" y="20" width="160" height="80" as="geometry"/>
                </mxCell>
                <mxCell id="4mFP-AUnUqjv986MjFmd-17" value="Theorytical&#10;Application" style="text;strokeColor=none;fillColor=none;align=left;verticalAlign=top;spacingLeft=4;spacingRight=4;overflow=hidden;rotatable=0;points=[[0,0.5],[1,0.5]];portConstraint=eastwest;" parent="4mFP-AUnUqjv986MjFmd-16" vertex="1">
                    <mxGeometry y="40" width="160" height="40" as="geometry"/>
                </mxCell>
                <mxCell id="lI1AC3695uIBytSDKQQq-10" value="LectureRegistrationApplication" style="swimlane;fontStyle=1;align=center;verticalAlign=top;childLayout=stackLayout;horizontal=1;startSize=26;horizontalStack=0;resizeParent=1;resizeParentMax=0;resizeLast=0;collapsible=1;marginBottom=0;" parent="1" vertex="1">
                    <mxGeometry x="50" y="1502" width="380" height="190" as="geometry"/>
                </mxCell>
                <mxCell id="lI1AC3695uIBytSDKQQq-11" value="- sessionSentForApproval: Map&lt;LectureSession,ApprovalSate&gt;" style="text;strokeColor=none;fillColor=none;align=left;verticalAlign=top;spacingLeft=4;spacingRight=4;overflow=hidden;rotatable=0;points=[[0,0.5],[1,0.5]];portConstraint=eastwest;" parent="lI1AC3695uIBytSDKQQq-10" vertex="1">
                    <mxGeometry y="26" width="380" height="26" as="geometry"/>
                </mxCell>
                <mxCell id="lI1AC3695uIBytSDKQQq-14" value="- advisor: Advisor" style="text;strokeColor=none;fillColor=none;align=left;verticalAlign=top;spacingLeft=4;spacingRight=4;overflow=hidden;rotatable=0;points=[[0,0.5],[1,0.5]];portConstraint=eastwest;" parent="lI1AC3695uIBytSDKQQq-10" vertex="1">
                    <mxGeometry y="52" width="380" height="26" as="geometry"/>
                </mxCell>
                <mxCell id="lI1AC3695uIBytSDKQQq-15" value="- student: Student" style="text;strokeColor=none;fillColor=none;align=left;verticalAlign=top;spacingLeft=4;spacingRight=4;overflow=hidden;rotatable=0;points=[[0,0.5],[1,0.5]];portConstraint=eastwest;" parent="lI1AC3695uIBytSDKQQq-10" vertex="1">
                    <mxGeometry y="78" width="380" height="26" as="geometry"/>
                </mxCell>
                <mxCell id="lI1AC3695uIBytSDKQQq-12" value="" style="line;strokeWidth=1;fillColor=none;align=left;verticalAlign=middle;spacingTop=-1;spacingLeft=3;spacingRight=3;rotatable=0;labelPosition=right;points=[];portConstraint=eastwest;strokeColor=inherit;" parent="lI1AC3695uIBytSDKQQq-10" vertex="1">
                    <mxGeometry y="104" width="380" height="8" as="geometry"/>
                </mxCell>
                <mxCell id="lI1AC3695uIBytSDKQQq-13" value="&lt;&lt;constructor&gt;&gt;LectureRegistrationApplication" style="text;strokeColor=none;fillColor=none;align=left;verticalAlign=top;spacingLeft=4;spacingRight=4;overflow=hidden;rotatable=0;points=[[0,0.5],[1,0.5]];portConstraint=eastwest;" parent="lI1AC3695uIBytSDKQQq-10" vertex="1">
                    <mxGeometry y="112" width="380" height="26" as="geometry"/>
                </mxCell>
                <mxCell id="cAbqjUgSmoloA-8wXHxn-2" value="+ approveApplication(): void" style="text;strokeColor=none;fillColor=none;align=left;verticalAlign=top;spacingLeft=4;spacingRight=4;overflow=hidden;rotatable=0;points=[[0,0.5],[1,0.5]];portConstraint=eastwest;" parent="lI1AC3695uIBytSDKQQq-10" vertex="1">
                    <mxGeometry y="138" width="380" height="26" as="geometry"/>
                </mxCell>
                <mxCell id="cAbqjUgSmoloA-8wXHxn-4" value="- getSessionSentForApproval(): Map&lt;LectureSession,ApprovalSate&gt;" style="text;strokeColor=none;fillColor=none;align=left;verticalAlign=top;spacingLeft=4;spacingRight=4;overflow=hidden;rotatable=0;points=[[0,0.5],[1,0.5]];portConstraint=eastwest;" parent="lI1AC3695uIBytSDKQQq-10" vertex="1">
                    <mxGeometry y="164" width="380" height="26" as="geometry"/>
                </mxCell>
                <mxCell id="lI1AC3695uIBytSDKQQq-16" value="Debt" style="swimlane;fontStyle=1;align=center;verticalAlign=top;childLayout=stackLayout;horizontal=1;startSize=26;horizontalStack=0;resizeParent=1;resizeParentMax=0;resizeLast=0;collapsible=1;marginBottom=0;" parent="1" vertex="1">
                    <mxGeometry x="1160" y="616" width="160" height="216" as="geometry"/>
                </mxCell>
                <mxCell id="lI1AC3695uIBytSDKQQq-17" value="- amount: Double" style="text;strokeColor=none;fillColor=none;align=left;verticalAlign=top;spacingLeft=4;spacingRight=4;overflow=hidden;rotatable=0;points=[[0,0.5],[1,0.5]];portConstraint=eastwest;" parent="lI1AC3695uIBytSDKQQq-16" vertex="1">
                    <mxGeometry y="26" width="160" height="26" as="geometry"/>
                </mxCell>
                <mxCell id="lI1AC3695uIBytSDKQQq-20" value="- student: Student" style="text;strokeColor=none;fillColor=none;align=left;verticalAlign=top;spacingLeft=4;spacingRight=4;overflow=hidden;rotatable=0;points=[[0,0.5],[1,0.5]];portConstraint=eastwest;" parent="lI1AC3695uIBytSDKQQq-16" vertex="1">
                    <mxGeometry y="52" width="160" height="26" as="geometry"/>
                </mxCell>
                <mxCell id="lI1AC3695uIBytSDKQQq-18" value="" style="line;strokeWidth=1;fillColor=none;align=left;verticalAlign=middle;spacingTop=-1;spacingLeft=3;spacingRight=3;rotatable=0;labelPosition=right;points=[];portConstraint=eastwest;strokeColor=inherit;" parent="lI1AC3695uIBytSDKQQq-16" vertex="1">
                    <mxGeometry y="78" width="160" height="8" as="geometry"/>
                </mxCell>
                <mxCell id="cAbqjUgSmoloA-8wXHxn-5" value="&lt;&lt;constructor&gt;&gt;Debt()" style="text;strokeColor=none;fillColor=none;align=left;verticalAlign=top;spacingLeft=4;spacingRight=4;overflow=hidden;rotatable=0;points=[[0,0.5],[1,0.5]];portConstraint=eastwest;" parent="lI1AC3695uIBytSDKQQq-16" vertex="1">
                    <mxGeometry y="86" width="160" height="26" as="geometry"/>
                </mxCell>
                <mxCell id="lI1AC3695uIBytSDKQQq-19" value="+ getStudent(): Student" style="text;strokeColor=none;fillColor=none;align=left;verticalAlign=top;spacingLeft=4;spacingRight=4;overflow=hidden;rotatable=0;points=[[0,0.5],[1,0.5]];portConstraint=eastwest;" parent="lI1AC3695uIBytSDKQQq-16" vertex="1">
                    <mxGeometry y="112" width="160" height="26" as="geometry"/>
                </mxCell>
                <mxCell id="lI1AC3695uIBytSDKQQq-21" value="+ getAmount(): Double" style="text;strokeColor=none;fillColor=none;align=left;verticalAlign=top;spacingLeft=4;spacingRight=4;overflow=hidden;rotatable=0;points=[[0,0.5],[1,0.5]];portConstraint=eastwest;" parent="lI1AC3695uIBytSDKQQq-16" vertex="1">
                    <mxGeometry y="138" width="160" height="26" as="geometry"/>
                </mxCell>
                <mxCell id="lI1AC3695uIBytSDKQQq-22" value="+ setStudent(Student): void" style="text;strokeColor=none;fillColor=none;align=left;verticalAlign=top;spacingLeft=4;spacingRight=4;overflow=hidden;rotatable=0;points=[[0,0.5],[1,0.5]];portConstraint=eastwest;" parent="lI1AC3695uIBytSDKQQq-16" vertex="1">
                    <mxGeometry y="164" width="160" height="26" as="geometry"/>
                </mxCell>
                <mxCell id="lI1AC3695uIBytSDKQQq-23" value="+ setAmount(Double): void" style="text;strokeColor=none;fillColor=none;align=left;verticalAlign=top;spacingLeft=4;spacingRight=4;overflow=hidden;rotatable=0;points=[[0,0.5],[1,0.5]];portConstraint=eastwest;" parent="lI1AC3695uIBytSDKQQq-16" vertex="1">
                    <mxGeometry y="190" width="160" height="26" as="geometry"/>
                </mxCell>
                <mxCell id="lI1AC3695uIBytSDKQQq-24" value="&lt;&lt;Enum&gt;&gt;&#10;FilterType" style="swimlane;fontStyle=1;align=center;verticalAlign=top;childLayout=stackLayout;horizontal=1;startSize=40;horizontalStack=0;resizeParent=1;resizeParentMax=0;resizeLast=0;collapsible=1;marginBottom=0;" parent="1" vertex="1">
                    <mxGeometry x="1110" y="235" width="160" height="80" as="geometry"/>
                </mxCell>
                <mxCell id="lI1AC3695uIBytSDKQQq-25" value="Name&#10;ID" style="text;strokeColor=none;fillColor=none;align=left;verticalAlign=top;spacingLeft=4;spacingRight=4;overflow=hidden;rotatable=0;points=[[0,0.5],[1,0.5]];portConstraint=eastwest;" parent="lI1AC3695uIBytSDKQQq-24" vertex="1">
                    <mxGeometry y="40" width="160" height="40" as="geometry"/>
                </mxCell>
                <mxCell id="lI1AC3695uIBytSDKQQq-30" value="DataManager" style="swimlane;fontStyle=1;align=center;verticalAlign=top;childLayout=stackLayout;horizontal=1;startSize=26;horizontalStack=0;resizeParent=1;resizeParentMax=0;resizeLast=0;collapsible=1;marginBottom=0;" parent="1" vertex="1">
                    <mxGeometry x="1330" y="30" width="310" height="502" as="geometry"/>
                </mxCell>
                <mxCell id="lI1AC3695uIBytSDKQQq-31" value="- sinleInstance: DataManager" style="text;strokeColor=none;fillColor=none;align=left;verticalAlign=top;spacingLeft=4;spacingRight=4;overflow=hidden;rotatable=0;points=[[0,0.5],[1,0.5]];portConstraint=eastwest;fontStyle=4" parent="lI1AC3695uIBytSDKQQq-30" vertex="1">
                    <mxGeometry y="26" width="310" height="26" as="geometry"/>
                </mxCell>
                <mxCell id="lI1AC3695uIBytSDKQQq-33" value="- listOfLectures: ArrayList&lt;Lecture&gt;" style="text;strokeColor=none;fillColor=none;align=left;verticalAlign=top;spacingLeft=4;spacingRight=4;overflow=hidden;rotatable=0;points=[[0,0.5],[1,0.5]];portConstraint=eastwest;" parent="lI1AC3695uIBytSDKQQq-30" vertex="1">
                    <mxGeometry y="52" width="310" height="26" as="geometry"/>
                </mxCell>
                <mxCell id="lI1AC3695uIBytSDKQQq-35" value="- listOfPeople: ArrayList&lt;Person&gt;" style="text;strokeColor=none;fillColor=none;align=left;verticalAlign=top;spacingLeft=4;spacingRight=4;overflow=hidden;rotatable=0;points=[[0,0.5],[1,0.5]];portConstraint=eastwest;" parent="lI1AC3695uIBytSDKQQq-30" vertex="1">
                    <mxGeometry y="78" width="310" height="26" as="geometry"/>
                </mxCell>
                <mxCell id="lI1AC3695uIBytSDKQQq-34" value="- cacheList: ArrayList&lt;Person&gt;" style="text;strokeColor=none;fillColor=none;align=left;verticalAlign=top;spacingLeft=4;spacingRight=4;overflow=hidden;rotatable=0;points=[[0,0.5],[1,0.5]];portConstraint=eastwest;" parent="lI1AC3695uIBytSDKQQq-30" vertex="1">
                    <mxGeometry y="104" width="310" height="26" as="geometry"/>
                </mxCell>
                <mxCell id="lI1AC3695uIBytSDKQQq-32" value="" style="line;strokeWidth=1;fillColor=none;align=left;verticalAlign=middle;spacingTop=-1;spacingLeft=3;spacingRight=3;rotatable=0;labelPosition=right;points=[];portConstraint=eastwest;strokeColor=inherit;" parent="lI1AC3695uIBytSDKQQq-30" vertex="1">
                    <mxGeometry y="130" width="310" height="8" as="geometry"/>
                </mxCell>
                <mxCell id="lI1AC3695uIBytSDKQQq-36" value="- &lt;&lt;constructor&gt;&gt;DataMAnager" style="text;strokeColor=none;fillColor=none;align=left;verticalAlign=top;spacingLeft=4;spacingRight=4;overflow=hidden;rotatable=0;points=[[0,0.5],[1,0.5]];portConstraint=eastwest;" parent="lI1AC3695uIBytSDKQQq-30" vertex="1">
                    <mxGeometry y="138" width="310" height="26" as="geometry"/>
                </mxCell>
                <mxCell id="lI1AC3695uIBytSDKQQq-37" value="+ getInstance(): singleInstance" style="text;strokeColor=none;fillColor=none;align=left;verticalAlign=top;spacingLeft=4;spacingRight=4;overflow=hidden;rotatable=0;points=[[0,0.5],[1,0.5]];portConstraint=eastwest;" parent="lI1AC3695uIBytSDKQQq-30" vertex="1">
                    <mxGeometry y="164" width="310" height="26" as="geometry"/>
                </mxCell>
                <mxCell id="CU2UcYCGGvy0B9QFxN74-1" value="+ findListOfFilesInDirectory(): File[]" style="text;strokeColor=none;fillColor=none;align=left;verticalAlign=top;spacingLeft=4;spacingRight=4;overflow=hidden;rotatable=0;points=[[0,0.5],[1,0.5]];portConstraint=eastwest;" parent="lI1AC3695uIBytSDKQQq-30" vertex="1">
                    <mxGeometry y="190" width="310" height="26" as="geometry"/>
                </mxCell>
                <mxCell id="CU2UcYCGGvy0B9QFxN74-2" value="+ loadLectures(): void" style="text;strokeColor=none;fillColor=none;align=left;verticalAlign=top;spacingLeft=4;spacingRight=4;overflow=hidden;rotatable=0;points=[[0,0.5],[1,0.5]];portConstraint=eastwest;" parent="lI1AC3695uIBytSDKQQq-30" vertex="1">
                    <mxGeometry y="216" width="310" height="26" as="geometry"/>
                </mxCell>
                <mxCell id="CU2UcYCGGvy0B9QFxN74-6" value="+ loadAdvisors(): void" style="text;strokeColor=none;fillColor=none;align=left;verticalAlign=top;spacingLeft=4;spacingRight=4;overflow=hidden;rotatable=0;points=[[0,0.5],[1,0.5]];portConstraint=eastwest;" parent="lI1AC3695uIBytSDKQQq-30" vertex="1">
                    <mxGeometry y="242" width="310" height="26" as="geometry"/>
                </mxCell>
                <mxCell id="CU2UcYCGGvy0B9QFxN74-7" value="+ loadInstructors(): void" style="text;strokeColor=none;fillColor=none;align=left;verticalAlign=top;spacingLeft=4;spacingRight=4;overflow=hidden;rotatable=0;points=[[0,0.5],[1,0.5]];portConstraint=eastwest;" parent="lI1AC3695uIBytSDKQQq-30" vertex="1">
                    <mxGeometry y="268" width="310" height="26" as="geometry"/>
                </mxCell>
                <mxCell id="CU2UcYCGGvy0B9QFxN74-8" value="+ loadStudents(): void" style="text;strokeColor=none;fillColor=none;align=left;verticalAlign=top;spacingLeft=4;spacingRight=4;overflow=hidden;rotatable=0;points=[[0,0.5],[1,0.5]];portConstraint=eastwest;" parent="lI1AC3695uIBytSDKQQq-30" vertex="1">
                    <mxGeometry y="294" width="310" height="26" as="geometry"/>
                </mxCell>
                <mxCell id="lI1AC3695uIBytSDKQQq-38" value="+ findLecture(FilterType, String): ArrayList&lt;Lecture&gt;" style="text;strokeColor=none;fillColor=none;align=left;verticalAlign=top;spacingLeft=4;spacingRight=4;overflow=hidden;rotatable=0;points=[[0,0.5],[1,0.5]];portConstraint=eastwest;" parent="lI1AC3695uIBytSDKQQq-30" vertex="1">
                    <mxGeometry y="320" width="310" height="26" as="geometry"/>
                </mxCell>
                <mxCell id="lI1AC3695uIBytSDKQQq-39" value="+ findPerson(FilterType, String): ArrayList&lt;Person&gt;" style="text;strokeColor=none;fillColor=none;align=left;verticalAlign=top;spacingLeft=4;spacingRight=4;overflow=hidden;rotatable=0;points=[[0,0.5],[1,0.5]];portConstraint=eastwest;" parent="lI1AC3695uIBytSDKQQq-30" vertex="1">
                    <mxGeometry y="346" width="310" height="26" as="geometry"/>
                </mxCell>
                <mxCell id="lI1AC3695uIBytSDKQQq-40" value="+ findStudent(FilterType, String): ArrayList&lt;Student&gt;" style="text;strokeColor=none;fillColor=none;align=left;verticalAlign=top;spacingLeft=4;spacingRight=4;overflow=hidden;rotatable=0;points=[[0,0.5],[1,0.5]];portConstraint=eastwest;" parent="lI1AC3695uIBytSDKQQq-30" vertex="1">
                    <mxGeometry y="372" width="310" height="26" as="geometry"/>
                </mxCell>
                <mxCell id="lI1AC3695uIBytSDKQQq-41" value="+ findInstructor(FilterType, String): ArrayList&lt;Instructor&gt;" style="text;strokeColor=none;fillColor=none;align=left;verticalAlign=top;spacingLeft=4;spacingRight=4;overflow=hidden;rotatable=0;points=[[0,0.5],[1,0.5]];portConstraint=eastwest;" parent="lI1AC3695uIBytSDKQQq-30" vertex="1">
                    <mxGeometry y="398" width="310" height="26" as="geometry"/>
                </mxCell>
                <mxCell id="lI1AC3695uIBytSDKQQq-42" value="+ findAdvisor(FilterType, String): ArrayList&lt;Advisor&gt;" style="text;strokeColor=none;fillColor=none;align=left;verticalAlign=top;spacingLeft=4;spacingRight=4;overflow=hidden;rotatable=0;points=[[0,0.5],[1,0.5]];portConstraint=eastwest;" parent="lI1AC3695uIBytSDKQQq-30" vertex="1">
                    <mxGeometry y="424" width="310" height="26" as="geometry"/>
                </mxCell>
                <mxCell id="CU2UcYCGGvy0B9QFxN74-9" value="+ listOfFilesInDirectory(String): File[]" style="text;strokeColor=none;fillColor=none;align=left;verticalAlign=top;spacingLeft=4;spacingRight=4;overflow=hidden;rotatable=0;points=[[0,0.5],[1,0.5]];portConstraint=eastwest;" parent="lI1AC3695uIBytSDKQQq-30" vertex="1">
                    <mxGeometry y="450" width="310" height="26" as="geometry"/>
                </mxCell>
                <mxCell id="CU2UcYCGGvy0B9QFxN74-10" value="+ contentsOfFiles(File[]): ArrayList&lt;String&gt;" style="text;strokeColor=none;fillColor=none;align=left;verticalAlign=top;spacingLeft=4;spacingRight=4;overflow=hidden;rotatable=0;points=[[0,0.5],[1,0.5]];portConstraint=eastwest;" parent="lI1AC3695uIBytSDKQQq-30" vertex="1">
                    <mxGeometry y="476" width="310" height="26" as="geometry"/>
                </mxCell>
                <mxCell id="lI1AC3695uIBytSDKQQq-44" value="Implement" style="endArrow=block;endSize=16;endFill=0;html=1;rounded=0;" parent="1" source="GpqEzXDei8LeBioLYVpC-6" target="Sv2H_rABcHJF4czR625y-42" edge="1">
                    <mxGeometry width="160" relative="1" as="geometry">
                        <mxPoint x="60" y="360" as="sourcePoint"/>
                        <mxPoint x="220" y="360" as="targetPoint"/>
                    </mxGeometry>
                </mxCell>
                <mxCell id="lI1AC3695uIBytSDKQQq-45" value="Implement" style="endArrow=block;endSize=16;endFill=0;html=1;rounded=0;" parent="1" source="Sv2H_rABcHJF4czR625y-46" target="Sv2H_rABcHJF4czR625y-42" edge="1">
                    <mxGeometry width="160" relative="1" as="geometry">
                        <mxPoint x="320" y="270" as="sourcePoint"/>
                        <mxPoint x="480" y="270" as="targetPoint"/>
                    </mxGeometry>
                </mxCell>
                <mxCell id="lI1AC3695uIBytSDKQQq-46" value="Implement" style="endArrow=block;endSize=16;endFill=0;html=1;rounded=0;" parent="1" source="GpqEzXDei8LeBioLYVpC-13" target="Sv2H_rABcHJF4czR625y-42" edge="1">
                    <mxGeometry width="160" relative="1" as="geometry">
                        <mxPoint x="240" y="40" as="sourcePoint"/>
                        <mxPoint x="400" y="40" as="targetPoint"/>
                    </mxGeometry>
                </mxCell>
                <mxCell id="lI1AC3695uIBytSDKQQq-47" value="Implement" style="endArrow=block;endSize=16;endFill=0;html=1;rounded=0;" parent="1" source="GpqEzXDei8LeBioLYVpC-20" target="Sv2H_rABcHJF4czR625y-42" edge="1">
                    <mxGeometry width="160" relative="1" as="geometry">
                        <mxPoint x="60" y="160" as="sourcePoint"/>
                        <mxPoint x="220" y="160" as="targetPoint"/>
                    </mxGeometry>
                </mxCell>
                <mxCell id="lI1AC3695uIBytSDKQQq-48" value="Inherit" style="endArrow=block;endSize=16;endFill=0;html=1;rounded=0;" parent="1" source="Sv2H_rABcHJF4czR625y-33" target="Sv2H_rABcHJF4czR625y-14" edge="1">
                    <mxGeometry width="160" relative="1" as="geometry">
                        <mxPoint x="710" y="847.9999999999998" as="sourcePoint"/>
                        <mxPoint x="710" y="770" as="targetPoint"/>
                    </mxGeometry>
                </mxCell>
                <mxCell id="lI1AC3695uIBytSDKQQq-49" value="Inherit" style="endArrow=block;endSize=16;endFill=0;html=1;rounded=0;" parent="1" source="Sv2H_rABcHJF4czR625y-14" target="Sv2H_rABcHJF4czR625y-1" edge="1">
                    <mxGeometry width="160" relative="1" as="geometry">
                        <mxPoint x="956.37" y="518.9999999999998" as="sourcePoint"/>
                        <mxPoint x="956.37" y="441" as="targetPoint"/>
                    </mxGeometry>
                </mxCell>
                <mxCell id="lI1AC3695uIBytSDKQQq-50" value="Inherit" style="endArrow=block;endSize=16;endFill=0;html=1;rounded=0;" parent="1" source="Sv2H_rABcHJF4czR625y-7" target="Sv2H_rABcHJF4czR625y-1" edge="1">
                    <mxGeometry width="160" relative="1" as="geometry">
                        <mxPoint x="570" y="547.9999999999998" as="sourcePoint"/>
                        <mxPoint x="570" y="470" as="targetPoint"/>
                    </mxGeometry>
                </mxCell>
                <mxCell id="BRYjogfGwO4EZ4AMCY0b-19" value="&lt;&lt;Enum&gt;&gt;&#10;LetterGrade" style="swimlane;fontStyle=1;align=center;verticalAlign=top;childLayout=stackLayout;horizontal=1;startSize=40;horizontalStack=0;resizeParent=1;resizeParentMax=0;resizeLast=0;collapsible=1;marginBottom=0;" parent="1" vertex="1">
                    <mxGeometry x="1110" y="340" width="190" height="242" as="geometry"/>
                </mxCell>
                <mxCell id="BRYjogfGwO4EZ4AMCY0b-20" value="AA = 4.00&#10;BA = 3.50&#10;BB = 3.00&#10;CB = 2.50&#10;CC = 2.00&#10;DC = 1.50&#10;DD = 1.00&#10;FD = 0.50&#10;FF = 0.00" style="text;strokeColor=none;fillColor=none;align=left;verticalAlign=top;spacingLeft=4;spacingRight=4;overflow=hidden;rotatable=0;points=[[0,0.5],[1,0.5]];portConstraint=eastwest;" parent="BRYjogfGwO4EZ4AMCY0b-19" vertex="1">
                    <mxGeometry y="40" width="190" height="130" as="geometry"/>
                </mxCell>
                <mxCell id="BRYjogfGwO4EZ4AMCY0b-21" value="" style="line;strokeWidth=1;fillColor=none;align=left;verticalAlign=middle;spacingTop=-1;spacingLeft=3;spacingRight=3;rotatable=0;labelPosition=right;points=[];portConstraint=eastwest;strokeColor=inherit;" parent="BRYjogfGwO4EZ4AMCY0b-19" vertex="1">
                    <mxGeometry y="170" width="190" height="8" as="geometry"/>
                </mxCell>
                <mxCell id="BRYjogfGwO4EZ4AMCY0b-22" value="&lt;&lt;constructor&gt;&gt;LetterGrade()" style="text;strokeColor=none;fillColor=none;align=left;verticalAlign=top;spacingLeft=4;spacingRight=4;overflow=hidden;rotatable=0;points=[[0,0.5],[1,0.5]];portConstraint=eastwest;" parent="BRYjogfGwO4EZ4AMCY0b-19" vertex="1">
                    <mxGeometry y="178" width="190" height="32" as="geometry"/>
                </mxCell>
                <mxCell id="BRYjogfGwO4EZ4AMCY0b-23" value="+ getLetterGradeValue(): Double" style="text;strokeColor=none;fillColor=none;align=left;verticalAlign=top;spacingLeft=4;spacingRight=4;overflow=hidden;rotatable=0;points=[[0,0.5],[1,0.5]];portConstraint=eastwest;" parent="BRYjogfGwO4EZ4AMCY0b-19" vertex="1">
                    <mxGeometry y="210" width="190" height="32" as="geometry"/>
                </mxCell>
                <mxCell id="CU2UcYCGGvy0B9QFxN74-11" value="StudentJSON" style="swimlane;fontStyle=1;align=center;verticalAlign=top;childLayout=stackLayout;horizontal=1;startSize=26;horizontalStack=0;resizeParent=1;resizeParentMax=0;resizeLast=0;collapsible=1;marginBottom=0;" parent="1" vertex="1">
                    <mxGeometry x="1085" y="1048" width="240" height="242" as="geometry"/>
                </mxCell>
                <mxCell id="CU2UcYCGGvy0B9QFxN74-12" value="- advisorID: String" style="text;strokeColor=none;fillColor=none;align=left;verticalAlign=top;spacingLeft=4;spacingRight=4;overflow=hidden;rotatable=0;points=[[0,0.5],[1,0.5]];portConstraint=eastwest;" parent="CU2UcYCGGvy0B9QFxN74-11" vertex="1">
                    <mxGeometry y="26" width="240" height="26" as="geometry"/>
                </mxCell>
                <mxCell id="CU2UcYCGGvy0B9QFxN74-29" value="- studentID: String" style="text;strokeColor=none;fillColor=none;align=left;verticalAlign=top;spacingLeft=4;spacingRight=4;overflow=hidden;rotatable=0;points=[[0,0.5],[1,0.5]];portConstraint=eastwest;" parent="CU2UcYCGGvy0B9QFxN74-11" vertex="1">
                    <mxGeometry y="52" width="240" height="26" as="geometry"/>
                </mxCell>
                <mxCell id="CU2UcYCGGvy0B9QFxN74-30" value="- sessions: Map&lt;String,String&gt;" style="text;strokeColor=none;fillColor=none;align=left;verticalAlign=top;spacingLeft=4;spacingRight=4;overflow=hidden;rotatable=0;points=[[0,0.5],[1,0.5]];portConstraint=eastwest;" parent="CU2UcYCGGvy0B9QFxN74-11" vertex="1">
                    <mxGeometry y="78" width="240" height="26" as="geometry"/>
                </mxCell>
                <mxCell id="CU2UcYCGGvy0B9QFxN74-31" value="- transcript: ArrayList&lt;Map&lt;String,String&gt;&gt;" style="text;strokeColor=none;fillColor=none;align=left;verticalAlign=top;spacingLeft=4;spacingRight=4;overflow=hidden;rotatable=0;points=[[0,0.5],[1,0.5]];portConstraint=eastwest;" parent="CU2UcYCGGvy0B9QFxN74-11" vertex="1">
                    <mxGeometry y="104" width="240" height="26" as="geometry"/>
                </mxCell>
                <mxCell id="CU2UcYCGGvy0B9QFxN74-13" value="" style="line;strokeWidth=1;fillColor=none;align=left;verticalAlign=middle;spacingTop=-1;spacingLeft=3;spacingRight=3;rotatable=0;labelPosition=right;points=[];portConstraint=eastwest;strokeColor=inherit;" parent="CU2UcYCGGvy0B9QFxN74-11" vertex="1">
                    <mxGeometry y="130" width="240" height="8" as="geometry"/>
                </mxCell>
                <mxCell id="CU2UcYCGGvy0B9QFxN74-14" value="&lt;&lt;constructor&gt;&gt;StudentJson()" style="text;strokeColor=none;fillColor=none;align=left;verticalAlign=top;spacingLeft=4;spacingRight=4;overflow=hidden;rotatable=0;points=[[0,0.5],[1,0.5]];portConstraint=eastwest;" parent="CU2UcYCGGvy0B9QFxN74-11" vertex="1">
                    <mxGeometry y="138" width="240" height="26" as="geometry"/>
                </mxCell>
                <mxCell id="CU2UcYCGGvy0B9QFxN74-32" value="+ setAdvisorID(String): void" style="text;strokeColor=none;fillColor=none;align=left;verticalAlign=top;spacingLeft=4;spacingRight=4;overflow=hidden;rotatable=0;points=[[0,0.5],[1,0.5]];portConstraint=eastwest;" parent="CU2UcYCGGvy0B9QFxN74-11" vertex="1">
                    <mxGeometry y="164" width="240" height="26" as="geometry"/>
                </mxCell>
                <mxCell id="CU2UcYCGGvy0B9QFxN74-35" value="+ setStudentID(String): void" style="text;strokeColor=none;fillColor=none;align=left;verticalAlign=top;spacingLeft=4;spacingRight=4;overflow=hidden;rotatable=0;points=[[0,0.5],[1,0.5]];portConstraint=eastwest;" parent="CU2UcYCGGvy0B9QFxN74-11" vertex="1">
                    <mxGeometry y="190" width="240" height="26" as="geometry"/>
                </mxCell>
                <mxCell id="CU2UcYCGGvy0B9QFxN74-33" value="+ addSemester(): void" style="text;strokeColor=none;fillColor=none;align=left;verticalAlign=top;spacingLeft=4;spacingRight=4;overflow=hidden;rotatable=0;points=[[0,0.5],[1,0.5]];portConstraint=eastwest;" parent="CU2UcYCGGvy0B9QFxN74-11" vertex="1">
                    <mxGeometry y="216" width="240" height="26" as="geometry"/>
                </mxCell>
                <mxCell id="CU2UcYCGGvy0B9QFxN74-15" value="InstructorJSON" style="swimlane;fontStyle=1;align=center;verticalAlign=top;childLayout=stackLayout;horizontal=1;startSize=26;horizontalStack=0;resizeParent=1;resizeParentMax=0;resizeLast=0;collapsible=1;marginBottom=0;" parent="1" vertex="1">
                    <mxGeometry x="790" y="1090" width="200" height="60" as="geometry"/>
                </mxCell>
                <mxCell id="CU2UcYCGGvy0B9QFxN74-17" value="" style="line;strokeWidth=1;fillColor=none;align=left;verticalAlign=middle;spacingTop=-1;spacingLeft=3;spacingRight=3;rotatable=0;labelPosition=right;points=[];portConstraint=eastwest;strokeColor=inherit;" parent="CU2UcYCGGvy0B9QFxN74-15" vertex="1">
                    <mxGeometry y="26" width="200" height="8" as="geometry"/>
                </mxCell>
                <mxCell id="CU2UcYCGGvy0B9QFxN74-18" value="&lt;&lt;constructor&gt;&gt;InstructorJSON" style="text;strokeColor=none;fillColor=none;align=left;verticalAlign=top;spacingLeft=4;spacingRight=4;overflow=hidden;rotatable=0;points=[[0,0.5],[1,0.5]];portConstraint=eastwest;" parent="CU2UcYCGGvy0B9QFxN74-15" vertex="1">
                    <mxGeometry y="34" width="200" height="26" as="geometry"/>
                </mxCell>
                <mxCell id="CU2UcYCGGvy0B9QFxN74-19" value="AdvisorJSON" style="swimlane;fontStyle=1;align=center;verticalAlign=top;childLayout=stackLayout;horizontal=1;startSize=26;horizontalStack=0;resizeParent=1;resizeParentMax=0;resizeLast=0;collapsible=1;marginBottom=0;" parent="1" vertex="1">
                    <mxGeometry x="795" y="1178" width="190" height="112" as="geometry"/>
                </mxCell>
                <mxCell id="CU2UcYCGGvy0B9QFxN74-20" value="- listOfStudnet: ArrayList&lt;String&gt;" style="text;strokeColor=none;fillColor=none;align=left;verticalAlign=top;spacingLeft=4;spacingRight=4;overflow=hidden;rotatable=0;points=[[0,0.5],[1,0.5]];portConstraint=eastwest;" parent="CU2UcYCGGvy0B9QFxN74-19" vertex="1">
                    <mxGeometry y="26" width="190" height="26" as="geometry"/>
                </mxCell>
                <mxCell id="CU2UcYCGGvy0B9QFxN74-21" value="" style="line;strokeWidth=1;fillColor=none;align=left;verticalAlign=middle;spacingTop=-1;spacingLeft=3;spacingRight=3;rotatable=0;labelPosition=right;points=[];portConstraint=eastwest;strokeColor=inherit;" parent="CU2UcYCGGvy0B9QFxN74-19" vertex="1">
                    <mxGeometry y="52" width="190" height="8" as="geometry"/>
                </mxCell>
                <mxCell id="CU2UcYCGGvy0B9QFxN74-22" value="&lt;&lt;constructor&gt;&gt;AdvisorJSON()" style="text;strokeColor=none;fillColor=none;align=left;verticalAlign=top;spacingLeft=4;spacingRight=4;overflow=hidden;rotatable=0;points=[[0,0.5],[1,0.5]];portConstraint=eastwest;" parent="CU2UcYCGGvy0B9QFxN74-19" vertex="1">
                    <mxGeometry y="60" width="190" height="26" as="geometry"/>
                </mxCell>
                <mxCell id="CU2UcYCGGvy0B9QFxN74-28" value="+ addStudent(String): void" style="text;strokeColor=none;fillColor=none;align=left;verticalAlign=top;spacingLeft=4;spacingRight=4;overflow=hidden;rotatable=0;points=[[0,0.5],[1,0.5]];portConstraint=eastwest;" parent="CU2UcYCGGvy0B9QFxN74-19" vertex="1">
                    <mxGeometry y="86" width="190" height="26" as="geometry"/>
                </mxCell>
                <mxCell id="CU2UcYCGGvy0B9QFxN74-23" value="PersonJSON" style="swimlane;fontStyle=1;align=center;verticalAlign=top;childLayout=stackLayout;horizontal=1;startSize=26;horizontalStack=0;resizeParent=1;resizeParentMax=0;resizeLast=0;collapsible=1;marginBottom=0;" parent="1" vertex="1">
                    <mxGeometry x="1160" y="910" width="180" height="112" as="geometry"/>
                </mxCell>
                <mxCell id="CU2UcYCGGvy0B9QFxN74-24" value="# firstName: String" style="text;strokeColor=none;fillColor=none;align=left;verticalAlign=top;spacingLeft=4;spacingRight=4;overflow=hidden;rotatable=0;points=[[0,0.5],[1,0.5]];portConstraint=eastwest;" parent="CU2UcYCGGvy0B9QFxN74-23" vertex="1">
                    <mxGeometry y="26" width="180" height="26" as="geometry"/>
                </mxCell>
                <mxCell id="CU2UcYCGGvy0B9QFxN74-27" value="# lastName: String" style="text;strokeColor=none;fillColor=none;align=left;verticalAlign=top;spacingLeft=4;spacingRight=4;overflow=hidden;rotatable=0;points=[[0,0.5],[1,0.5]];portConstraint=eastwest;" parent="CU2UcYCGGvy0B9QFxN74-23" vertex="1">
                    <mxGeometry y="52" width="180" height="26" as="geometry"/>
                </mxCell>
                <mxCell id="CU2UcYCGGvy0B9QFxN74-25" value="" style="line;strokeWidth=1;fillColor=none;align=left;verticalAlign=middle;spacingTop=-1;spacingLeft=3;spacingRight=3;rotatable=0;labelPosition=right;points=[];portConstraint=eastwest;strokeColor=inherit;" parent="CU2UcYCGGvy0B9QFxN74-23" vertex="1">
                    <mxGeometry y="78" width="180" height="8" as="geometry"/>
                </mxCell>
                <mxCell id="CU2UcYCGGvy0B9QFxN74-26" value="&lt;&lt;constructor&gt;&gt;PersonJson()" style="text;strokeColor=none;fillColor=none;align=left;verticalAlign=top;spacingLeft=4;spacingRight=4;overflow=hidden;rotatable=0;points=[[0,0.5],[1,0.5]];portConstraint=eastwest;" parent="CU2UcYCGGvy0B9QFxN74-23" vertex="1">
                    <mxGeometry y="86" width="180" height="26" as="geometry"/>
                </mxCell>
                <mxCell id="CU2UcYCGGvy0B9QFxN74-36" value="Inherit" style="endArrow=block;endSize=16;endFill=0;html=1;rounded=0;" parent="1" source="CU2UcYCGGvy0B9QFxN74-11" target="CU2UcYCGGvy0B9QFxN74-23" edge="1">
                    <mxGeometry width="160" relative="1" as="geometry">
                        <mxPoint x="1370" y="1262" as="sourcePoint"/>
                        <mxPoint x="1370" y="1180" as="targetPoint"/>
                    </mxGeometry>
                </mxCell>
                <mxCell id="CU2UcYCGGvy0B9QFxN74-37" value="Inherit" style="endArrow=block;endSize=16;endFill=0;html=1;rounded=0;" parent="1" source="CU2UcYCGGvy0B9QFxN74-15" target="CU2UcYCGGvy0B9QFxN74-23" edge="1">
                    <mxGeometry width="160" relative="1" as="geometry">
                        <mxPoint x="1318.75" y="1472" as="sourcePoint"/>
                        <mxPoint x="1318.75" y="1390" as="targetPoint"/>
                    </mxGeometry>
                </mxCell>
                <mxCell id="CU2UcYCGGvy0B9QFxN74-38" value="Inherit" style="endArrow=block;endSize=16;endFill=0;html=1;rounded=0;" parent="1" source="CU2UcYCGGvy0B9QFxN74-19" target="CU2UcYCGGvy0B9QFxN74-15" edge="1">
                    <mxGeometry width="160" relative="1" as="geometry">
                        <mxPoint x="1030" y="1450" as="sourcePoint"/>
                        <mxPoint x="1030" y="1368" as="targetPoint"/>
                    </mxGeometry>
                </mxCell>
                <mxCell id="CU2UcYCGGvy0B9QFxN74-39" value="&lt;&lt;Enum&gt;&gt;&#10;LectureType" style="swimlane;fontStyle=1;align=center;verticalAlign=top;childLayout=stackLayout;horizontal=1;startSize=40;horizontalStack=0;resizeParent=1;resizeParentMax=0;resizeLast=0;collapsible=1;marginBottom=0;" parent="1" vertex="1">
                    <mxGeometry x="910" y="20" width="160" height="120" as="geometry"/>
                </mxCell>
                <mxCell id="CU2UcYCGGvy0B9QFxN74-40" value="NTE&#10;UE&#10;TE&#10;FTE&#10;MANDATORY" style="text;strokeColor=none;fillColor=none;align=left;verticalAlign=top;spacingLeft=4;spacingRight=4;overflow=hidden;rotatable=0;points=[[0,0.5],[1,0.5]];portConstraint=eastwest;" parent="CU2UcYCGGvy0B9QFxN74-39" vertex="1">
                    <mxGeometry y="40" width="160" height="80" as="geometry"/>
                </mxCell>
                <mxCell id="CU2UcYCGGvy0B9QFxN74-46" value="JsonOperator" style="swimlane;fontStyle=1;align=center;verticalAlign=top;childLayout=stackLayout;horizontal=1;startSize=26;horizontalStack=0;resizeParent=1;resizeParentMax=0;resizeLast=0;collapsible=1;marginBottom=0;" parent="1" vertex="1">
                    <mxGeometry x="1450" y="1030" width="190" height="138" as="geometry"/>
                </mxCell>
                <mxCell id="CU2UcYCGGvy0B9QFxN74-47" value="- sinleInstance: JsonOperator" style="text;strokeColor=none;fillColor=none;align=left;verticalAlign=top;spacingLeft=4;spacingRight=4;overflow=hidden;rotatable=0;points=[[0,0.5],[1,0.5]];portConstraint=eastwest;fontStyle=4" parent="CU2UcYCGGvy0B9QFxN74-46" vertex="1">
                    <mxGeometry y="26" width="190" height="26" as="geometry"/>
                </mxCell>
                <mxCell id="CU2UcYCGGvy0B9QFxN74-48" value="" style="line;strokeWidth=1;fillColor=none;align=left;verticalAlign=middle;spacingTop=-1;spacingLeft=3;spacingRight=3;rotatable=0;labelPosition=right;points=[];portConstraint=eastwest;strokeColor=inherit;" parent="CU2UcYCGGvy0B9QFxN74-46" vertex="1">
                    <mxGeometry y="52" width="190" height="8" as="geometry"/>
                </mxCell>
                <mxCell id="CU2UcYCGGvy0B9QFxN74-49" value="- &lt;&lt;constructor&gt;&gt;JsonOperator()" style="text;strokeColor=none;fillColor=none;align=left;verticalAlign=top;spacingLeft=4;spacingRight=4;overflow=hidden;rotatable=0;points=[[0,0.5],[1,0.5]];portConstraint=eastwest;" parent="CU2UcYCGGvy0B9QFxN74-46" vertex="1">
                    <mxGeometry y="60" width="190" height="26" as="geometry"/>
                </mxCell>
                <mxCell id="CU2UcYCGGvy0B9QFxN74-50" value="+ readJsonFile(File, Class&lt;T&gt;: T" style="text;strokeColor=none;fillColor=none;align=left;verticalAlign=top;spacingLeft=4;spacingRight=4;overflow=hidden;rotatable=0;points=[[0,0.5],[1,0.5]];portConstraint=eastwest;" parent="CU2UcYCGGvy0B9QFxN74-46" vertex="1">
                    <mxGeometry y="86" width="190" height="26" as="geometry"/>
                </mxCell>
                <mxCell id="CU2UcYCGGvy0B9QFxN74-51" value="+ writeJsonFile(String,&lt;T&gt;): void" style="text;strokeColor=none;fillColor=none;align=left;verticalAlign=top;spacingLeft=4;spacingRight=4;overflow=hidden;rotatable=0;points=[[0,0.5],[1,0.5]];portConstraint=eastwest;" parent="CU2UcYCGGvy0B9QFxN74-46" vertex="1">
                    <mxGeometry y="112" width="190" height="26" as="geometry"/>
                </mxCell>
                <mxCell id="CU2UcYCGGvy0B9QFxN74-52" value="&lt;&lt;Enum&gt;&gt;&#10;InstructorType" style="swimlane;fontStyle=1;align=center;verticalAlign=top;childLayout=stackLayout;horizontal=1;startSize=40;horizontalStack=0;resizeParent=1;resizeParentMax=0;resizeLast=0;collapsible=1;marginBottom=0;" parent="1" vertex="1">
                    <mxGeometry x="910" y="158" width="160" height="80" as="geometry"/>
                </mxCell>
                <mxCell id="CU2UcYCGGvy0B9QFxN74-53" value="Assistant&#10;Instructor" style="text;strokeColor=none;fillColor=none;align=left;verticalAlign=top;spacingLeft=4;spacingRight=4;overflow=hidden;rotatable=0;points=[[0,0.5],[1,0.5]];portConstraint=eastwest;" parent="CU2UcYCGGvy0B9QFxN74-52" vertex="1">
                    <mxGeometry y="40" width="160" height="40" as="geometry"/>
                </mxCell>
                <mxCell id="CU2UcYCGGvy0B9QFxN74-54" value="&lt;&lt;Enum&gt;&gt;&#10;ApprovalState" style="swimlane;fontStyle=1;align=center;verticalAlign=top;childLayout=stackLayout;horizontal=1;startSize=40;horizontalStack=0;resizeParent=1;resizeParentMax=0;resizeLast=0;collapsible=1;marginBottom=0;" parent="1" vertex="1">
                    <mxGeometry x="910" y="260" width="160" height="90" as="geometry"/>
                </mxCell>
                <mxCell id="CU2UcYCGGvy0B9QFxN74-55" value="Approved&#10;Rejected&#10;Pending" style="text;strokeColor=none;fillColor=none;align=left;verticalAlign=top;spacingLeft=4;spacingRight=4;overflow=hidden;rotatable=0;points=[[0,0.5],[1,0.5]];portConstraint=eastwest;" parent="CU2UcYCGGvy0B9QFxN74-54" vertex="1">
                    <mxGeometry y="40" width="160" height="50" as="geometry"/>
                </mxCell>
                <mxCell id="CU2UcYCGGvy0B9QFxN74-56" value="ObjectCreator" style="swimlane;fontStyle=1;align=center;verticalAlign=top;childLayout=stackLayout;horizontal=1;startSize=26;horizontalStack=0;resizeParent=1;resizeParentMax=0;resizeLast=0;collapsible=1;marginBottom=0;" parent="1" vertex="1">
                    <mxGeometry x="755" y="1320" width="330" height="372" as="geometry"/>
                </mxCell>
                <mxCell id="CU2UcYCGGvy0B9QFxN74-57" value="- advisors: ArrayList&lt;Advisor&gt;" style="text;strokeColor=none;fillColor=none;align=left;verticalAlign=top;spacingLeft=4;spacingRight=4;overflow=hidden;rotatable=0;points=[[0,0.5],[1,0.5]];portConstraint=eastwest;" parent="CU2UcYCGGvy0B9QFxN74-56" vertex="1">
                    <mxGeometry y="26" width="330" height="26" as="geometry"/>
                </mxCell>
                <mxCell id="CU2UcYCGGvy0B9QFxN74-60" value="- students: ArrayList&lt;Student&gt;" style="text;strokeColor=none;fillColor=none;align=left;verticalAlign=top;spacingLeft=4;spacingRight=4;overflow=hidden;rotatable=0;points=[[0,0.5],[1,0.5]];portConstraint=eastwest;" parent="CU2UcYCGGvy0B9QFxN74-56" vertex="1">
                    <mxGeometry y="52" width="330" height="26" as="geometry"/>
                </mxCell>
                <mxCell id="CU2UcYCGGvy0B9QFxN74-61" value="- lectures: ArrayList&lt;Lecture&gt;" style="text;strokeColor=none;fillColor=none;align=left;verticalAlign=top;spacingLeft=4;spacingRight=4;overflow=hidden;rotatable=0;points=[[0,0.5],[1,0.5]];portConstraint=eastwest;" parent="CU2UcYCGGvy0B9QFxN74-56" vertex="1">
                    <mxGeometry y="78" width="330" height="26" as="geometry"/>
                </mxCell>
                <mxCell id="CU2UcYCGGvy0B9QFxN74-58" value="" style="line;strokeWidth=1;fillColor=none;align=left;verticalAlign=middle;spacingTop=-1;spacingLeft=3;spacingRight=3;rotatable=0;labelPosition=right;points=[];portConstraint=eastwest;strokeColor=inherit;" parent="CU2UcYCGGvy0B9QFxN74-56" vertex="1">
                    <mxGeometry y="104" width="330" height="8" as="geometry"/>
                </mxCell>
                <mxCell id="CU2UcYCGGvy0B9QFxN74-59" value="&lt;&lt;constructor&gt;&gt;ObjectCreator()" style="text;strokeColor=none;fillColor=none;align=left;verticalAlign=top;spacingLeft=4;spacingRight=4;overflow=hidden;rotatable=0;points=[[0,0.5],[1,0.5]];portConstraint=eastwest;" parent="CU2UcYCGGvy0B9QFxN74-56" vertex="1">
                    <mxGeometry y="112" width="330" height="26" as="geometry"/>
                </mxCell>
                <mxCell id="CU2UcYCGGvy0B9QFxN74-62" value="- newStudent(String, String, String, int)" style="text;strokeColor=none;fillColor=none;align=left;verticalAlign=top;spacingLeft=4;spacingRight=4;overflow=hidden;rotatable=0;points=[[0,0.5],[1,0.5]];portConstraint=eastwest;" parent="CU2UcYCGGvy0B9QFxN74-56" vertex="1">
                    <mxGeometry y="138" width="330" height="26" as="geometry"/>
                </mxCell>
                <mxCell id="CU2UcYCGGvy0B9QFxN74-63" value="- newLecture(String,String,LectureType,int,Lecture,int):void" style="text;strokeColor=none;fillColor=none;align=left;verticalAlign=top;spacingLeft=4;spacingRight=4;overflow=hidden;rotatable=0;points=[[0,0.5],[1,0.5]];portConstraint=eastwest;" parent="CU2UcYCGGvy0B9QFxN74-56" vertex="1">
                    <mxGeometry y="164" width="330" height="26" as="geometry"/>
                </mxCell>
                <mxCell id="CU2UcYCGGvy0B9QFxN74-64" value="- newAdvisor(String, String, String): void" style="text;strokeColor=none;fillColor=none;align=left;verticalAlign=top;spacingLeft=4;spacingRight=4;overflow=hidden;rotatable=0;points=[[0,0.5],[1,0.5]];portConstraint=eastwest;" parent="CU2UcYCGGvy0B9QFxN74-56" vertex="1">
                    <mxGeometry y="190" width="330" height="26" as="geometry"/>
                </mxCell>
                <mxCell id="CU2UcYCGGvy0B9QFxN74-65" value="+ createStudents(): void" style="text;strokeColor=none;fillColor=none;align=left;verticalAlign=top;spacingLeft=4;spacingRight=4;overflow=hidden;rotatable=0;points=[[0,0.5],[1,0.5]];portConstraint=eastwest;" parent="CU2UcYCGGvy0B9QFxN74-56" vertex="1">
                    <mxGeometry y="216" width="330" height="26" as="geometry"/>
                </mxCell>
                <mxCell id="CU2UcYCGGvy0B9QFxN74-66" value="+ createLectures(): void" style="text;strokeColor=none;fillColor=none;align=left;verticalAlign=top;spacingLeft=4;spacingRight=4;overflow=hidden;rotatable=0;points=[[0,0.5],[1,0.5]];portConstraint=eastwest;" parent="CU2UcYCGGvy0B9QFxN74-56" vertex="1">
                    <mxGeometry y="242" width="330" height="26" as="geometry"/>
                </mxCell>
                <mxCell id="CU2UcYCGGvy0B9QFxN74-67" value="+ createAdvisors(): void" style="text;strokeColor=none;fillColor=none;align=left;verticalAlign=top;spacingLeft=4;spacingRight=4;overflow=hidden;rotatable=0;points=[[0,0.5],[1,0.5]];portConstraint=eastwest;" parent="CU2UcYCGGvy0B9QFxN74-56" vertex="1">
                    <mxGeometry y="268" width="330" height="26" as="geometry"/>
                </mxCell>
                <mxCell id="CU2UcYCGGvy0B9QFxN74-68" value="+ getAdvisors(): ArrayList&lt;Advisor&gt;" style="text;strokeColor=none;fillColor=none;align=left;verticalAlign=top;spacingLeft=4;spacingRight=4;overflow=hidden;rotatable=0;points=[[0,0.5],[1,0.5]];portConstraint=eastwest;" parent="CU2UcYCGGvy0B9QFxN74-56" vertex="1">
                    <mxGeometry y="294" width="330" height="26" as="geometry"/>
                </mxCell>
                <mxCell id="CU2UcYCGGvy0B9QFxN74-69" value="+ getLectures(): ArrayList&lt;Lecture&gt;" style="text;strokeColor=none;fillColor=none;align=left;verticalAlign=top;spacingLeft=4;spacingRight=4;overflow=hidden;rotatable=0;points=[[0,0.5],[1,0.5]];portConstraint=eastwest;" parent="CU2UcYCGGvy0B9QFxN74-56" vertex="1">
                    <mxGeometry y="320" width="330" height="26" as="geometry"/>
                </mxCell>
                <mxCell id="CU2UcYCGGvy0B9QFxN74-70" value="+ getStudents(): ArrayList&lt;Student&gt;" style="text;strokeColor=none;fillColor=none;align=left;verticalAlign=top;spacingLeft=4;spacingRight=4;overflow=hidden;rotatable=0;points=[[0,0.5],[1,0.5]];portConstraint=eastwest;" parent="CU2UcYCGGvy0B9QFxN74-56" vertex="1">
                    <mxGeometry y="346" width="330" height="26" as="geometry"/>
                </mxCell>
                <mxCell id="CU2UcYCGGvy0B9QFxN74-87" value="RegistrationSystem" style="swimlane;fontStyle=1;align=center;verticalAlign=top;childLayout=stackLayout;horizontal=1;startSize=26;horizontalStack=0;resizeParent=1;resizeParentMax=0;resizeLast=0;collapsible=1;marginBottom=0;" parent="1" vertex="1">
                    <mxGeometry x="1420" y="1190" width="220" height="138" as="geometry"/>
                </mxCell>
                <mxCell id="CU2UcYCGGvy0B9QFxN74-88" value="- objects: ObjectCreator" style="text;strokeColor=none;fillColor=none;align=left;verticalAlign=top;spacingLeft=4;spacingRight=4;overflow=hidden;rotatable=0;points=[[0,0.5],[1,0.5]];portConstraint=eastwest;" parent="CU2UcYCGGvy0B9QFxN74-87" vertex="1">
                    <mxGeometry y="26" width="220" height="26" as="geometry"/>
                </mxCell>
                <mxCell id="CU2UcYCGGvy0B9QFxN74-91" value="- scanner: Scanner" style="text;strokeColor=none;fillColor=none;align=left;verticalAlign=top;spacingLeft=4;spacingRight=4;overflow=hidden;rotatable=0;points=[[0,0.5],[1,0.5]];portConstraint=eastwest;" parent="CU2UcYCGGvy0B9QFxN74-87" vertex="1">
                    <mxGeometry y="52" width="220" height="26" as="geometry"/>
                </mxCell>
                <mxCell id="CU2UcYCGGvy0B9QFxN74-89" value="" style="line;strokeWidth=1;fillColor=none;align=left;verticalAlign=middle;spacingTop=-1;spacingLeft=3;spacingRight=3;rotatable=0;labelPosition=right;points=[];portConstraint=eastwest;strokeColor=inherit;" parent="CU2UcYCGGvy0B9QFxN74-87" vertex="1">
                    <mxGeometry y="78" width="220" height="8" as="geometry"/>
                </mxCell>
                <mxCell id="CU2UcYCGGvy0B9QFxN74-90" value="&lt;&lt;constructor&gt;&gt;RegistrationSystem():" style="text;strokeColor=none;fillColor=none;align=left;verticalAlign=top;spacingLeft=4;spacingRight=4;overflow=hidden;rotatable=0;points=[[0,0.5],[1,0.5]];portConstraint=eastwest;" parent="CU2UcYCGGvy0B9QFxN74-87" vertex="1">
                    <mxGeometry y="86" width="220" height="26" as="geometry"/>
                </mxCell>
                <mxCell id="CU2UcYCGGvy0B9QFxN74-92" value="+ menu(): void" style="text;strokeColor=none;fillColor=none;align=left;verticalAlign=top;spacingLeft=4;spacingRight=4;overflow=hidden;rotatable=0;points=[[0,0.5],[1,0.5]];portConstraint=eastwest;" parent="CU2UcYCGGvy0B9QFxN74-87" vertex="1">
                    <mxGeometry y="112" width="220" height="26" as="geometry"/>
                </mxCell>
                <mxCell id="CU2UcYCGGvy0B9QFxN74-93" value="StudentRegistrationSystem" style="swimlane;fontStyle=1;align=center;verticalAlign=top;childLayout=stackLayout;horizontal=1;startSize=26;horizontalStack=0;resizeParent=1;resizeParentMax=0;resizeLast=0;collapsible=1;marginBottom=0;" parent="1" vertex="1">
                    <mxGeometry x="1120" y="1346" width="330" height="346" as="geometry"/>
                </mxCell>
                <mxCell id="CU2UcYCGGvy0B9QFxN74-94" value="- scanner: Scanner" style="text;strokeColor=none;fillColor=none;align=left;verticalAlign=top;spacingLeft=4;spacingRight=4;overflow=hidden;rotatable=0;points=[[0,0.5],[1,0.5]];portConstraint=eastwest;" parent="CU2UcYCGGvy0B9QFxN74-93" vertex="1">
                    <mxGeometry y="26" width="330" height="26" as="geometry"/>
                </mxCell>
                <mxCell id="CU2UcYCGGvy0B9QFxN74-95" value="- registrationSystem: RegistrationSystem" style="text;strokeColor=none;fillColor=none;align=left;verticalAlign=top;spacingLeft=4;spacingRight=4;overflow=hidden;rotatable=0;points=[[0,0.5],[1,0.5]];portConstraint=eastwest;" parent="CU2UcYCGGvy0B9QFxN74-93" vertex="1">
                    <mxGeometry y="52" width="330" height="26" as="geometry"/>
                </mxCell>
                <mxCell id="CU2UcYCGGvy0B9QFxN74-99" value="- objects1: ObjectCreator" style="text;strokeColor=none;fillColor=none;align=left;verticalAlign=top;spacingLeft=4;spacingRight=4;overflow=hidden;rotatable=0;points=[[0,0.5],[1,0.5]];portConstraint=eastwest;" parent="CU2UcYCGGvy0B9QFxN74-93" vertex="1">
                    <mxGeometry y="78" width="330" height="26" as="geometry"/>
                </mxCell>
                <mxCell id="CU2UcYCGGvy0B9QFxN74-96" value="" style="line;strokeWidth=1;fillColor=none;align=left;verticalAlign=middle;spacingTop=-1;spacingLeft=3;spacingRight=3;rotatable=0;labelPosition=right;points=[];portConstraint=eastwest;strokeColor=inherit;" parent="CU2UcYCGGvy0B9QFxN74-93" vertex="1">
                    <mxGeometry y="104" width="330" height="8" as="geometry"/>
                </mxCell>
                <mxCell id="CU2UcYCGGvy0B9QFxN74-97" value="&lt;&lt;constructor&gt;&gt;StudentRegistrationSystem(ObjectCreator):" style="text;strokeColor=none;fillColor=none;align=left;verticalAlign=top;spacingLeft=4;spacingRight=4;overflow=hidden;rotatable=0;points=[[0,0.5],[1,0.5]];portConstraint=eastwest;" parent="CU2UcYCGGvy0B9QFxN74-93" vertex="1">
                    <mxGeometry y="112" width="330" height="26" as="geometry"/>
                </mxCell>
                <mxCell id="CU2UcYCGGvy0B9QFxN74-98" value="+ studentLogin(): void" style="text;strokeColor=none;fillColor=none;align=left;verticalAlign=top;spacingLeft=4;spacingRight=4;overflow=hidden;rotatable=0;points=[[0,0.5],[1,0.5]];portConstraint=eastwest;" parent="CU2UcYCGGvy0B9QFxN74-93" vertex="1">
                    <mxGeometry y="138" width="330" height="26" as="geometry"/>
                </mxCell>
                <mxCell id="CU2UcYCGGvy0B9QFxN74-100" value="+ studentMenu(Student): void" style="text;strokeColor=none;fillColor=none;align=left;verticalAlign=top;spacingLeft=4;spacingRight=4;overflow=hidden;rotatable=0;points=[[0,0.5],[1,0.5]];portConstraint=eastwest;" parent="CU2UcYCGGvy0B9QFxN74-93" vertex="1">
                    <mxGeometry y="164" width="330" height="26" as="geometry"/>
                </mxCell>
                <mxCell id="CU2UcYCGGvy0B9QFxN74-101" value="+ transcriptMenu(Student): void" style="text;strokeColor=none;fillColor=none;align=left;verticalAlign=top;spacingLeft=4;spacingRight=4;overflow=hidden;rotatable=0;points=[[0,0.5],[1,0.5]];portConstraint=eastwest;" parent="CU2UcYCGGvy0B9QFxN74-93" vertex="1">
                    <mxGeometry y="190" width="330" height="26" as="geometry"/>
                </mxCell>
                <mxCell id="CU2UcYCGGvy0B9QFxN74-102" value="+ scheduleMenu(Student): void" style="text;strokeColor=none;fillColor=none;align=left;verticalAlign=top;spacingLeft=4;spacingRight=4;overflow=hidden;rotatable=0;points=[[0,0.5],[1,0.5]];portConstraint=eastwest;" parent="CU2UcYCGGvy0B9QFxN74-93" vertex="1">
                    <mxGeometry y="216" width="330" height="26" as="geometry"/>
                </mxCell>
                <mxCell id="CU2UcYCGGvy0B9QFxN74-103" value="+ makeRegistrationMenu(Student): void" style="text;strokeColor=none;fillColor=none;align=left;verticalAlign=top;spacingLeft=4;spacingRight=4;overflow=hidden;rotatable=0;points=[[0,0.5],[1,0.5]];portConstraint=eastwest;" parent="CU2UcYCGGvy0B9QFxN74-93" vertex="1">
                    <mxGeometry y="242" width="330" height="26" as="geometry"/>
                </mxCell>
                <mxCell id="CU2UcYCGGvy0B9QFxN74-104" value="+ registrationStatusMenu(Student): void" style="text;strokeColor=none;fillColor=none;align=left;verticalAlign=top;spacingLeft=4;spacingRight=4;overflow=hidden;rotatable=0;points=[[0,0.5],[1,0.5]];portConstraint=eastwest;" parent="CU2UcYCGGvy0B9QFxN74-93" vertex="1">
                    <mxGeometry y="268" width="330" height="26" as="geometry"/>
                </mxCell>
                <mxCell id="CU2UcYCGGvy0B9QFxN74-105" value="+ debyMenu(Student): void" style="text;strokeColor=none;fillColor=none;align=left;verticalAlign=top;spacingLeft=4;spacingRight=4;overflow=hidden;rotatable=0;points=[[0,0.5],[1,0.5]];portConstraint=eastwest;" parent="CU2UcYCGGvy0B9QFxN74-93" vertex="1">
                    <mxGeometry y="294" width="330" height="26" as="geometry"/>
                </mxCell>
                <mxCell id="CU2UcYCGGvy0B9QFxN74-106" value="+ signOut(): void" style="text;strokeColor=none;fillColor=none;align=left;verticalAlign=top;spacingLeft=4;spacingRight=4;overflow=hidden;rotatable=0;points=[[0,0.5],[1,0.5]];portConstraint=eastwest;" parent="CU2UcYCGGvy0B9QFxN74-93" vertex="1">
                    <mxGeometry y="320" width="330" height="26" as="geometry"/>
                </mxCell>
                <mxCell id="pkPw4IBcylEgwEKD2Afy-1" value="InstructorRegistrationSystem" style="swimlane;fontStyle=1;align=center;verticalAlign=top;childLayout=stackLayout;horizontal=1;startSize=26;horizontalStack=0;resizeParent=1;resizeParentMax=0;resizeLast=0;collapsible=1;marginBottom=0;" parent="1" vertex="1">
                    <mxGeometry x="1460" y="1390" width="180" height="34" as="geometry"/>
                </mxCell>
                <mxCell id="pkPw4IBcylEgwEKD2Afy-3" value="" style="line;strokeWidth=1;fillColor=none;align=left;verticalAlign=middle;spacingTop=-1;spacingLeft=3;spacingRight=3;rotatable=0;labelPosition=right;points=[];portConstraint=eastwest;strokeColor=inherit;" parent="pkPw4IBcylEgwEKD2Afy-1" vertex="1">
                    <mxGeometry y="26" width="180" height="8" as="geometry"/>
                </mxCell>
                <mxCell id="pkPw4IBcylEgwEKD2Afy-9" value="AdvisorRegistrationSystem" style="swimlane;fontStyle=1;align=center;verticalAlign=top;childLayout=stackLayout;horizontal=1;startSize=26;horizontalStack=0;resizeParent=1;resizeParentMax=0;resizeLast=0;collapsible=1;marginBottom=0;" parent="1" vertex="1">
                    <mxGeometry x="1460" y="1346" width="180" height="34" as="geometry"/>
                </mxCell>
                <mxCell id="pkPw4IBcylEgwEKD2Afy-10" value="" style="line;strokeWidth=1;fillColor=none;align=left;verticalAlign=middle;spacingTop=-1;spacingLeft=3;spacingRight=3;rotatable=0;labelPosition=right;points=[];portConstraint=eastwest;strokeColor=inherit;" parent="pkPw4IBcylEgwEKD2Afy-9" vertex="1">
                    <mxGeometry y="26" width="180" height="8" as="geometry"/>
                </mxCell>
            </root>
        </mxGraphModel>
    </diagram>
</mxfile>